<svg width="32" height="25" viewBox="0 0 32 25" fill="none" xmlns="http://www.w3.org/2000/svg">
<path d="M17.2669 19.0282H4.97176C3.29554 19.0282 1.93287 17.6645 1.93287 15.9893V4.98256C1.93287 3.30095 3.29661 1.93289 4.97176 1.93289H25.0306C26.7068 1.93289 28.0695 3.30095 28.0695 4.98256V8.93425C28.0695 9.46794 28.5023 9.9007 29.0359 9.9007C29.5696 9.9007 30.0024 9.46794 30.0024 8.93425V4.98256C30.0024 2.23464 27.7721 0 25.0306 0H4.97176C2.23031 0 0 2.23571 0 4.98256V15.9893C0 18.7308 2.23031 20.9611 4.97176 20.9611H17.2669C17.8006 20.9611 18.2334 20.5284 18.2334 19.9947C18.2334 19.461 17.8006 19.0282 17.2669 19.0282Z" fill="white"/>
<path d="M15.0005 5.31738C12.7691 5.31738 10.9533 7.13323 10.9533 9.36464V11.5993C10.9533 13.8307 12.7681 15.6465 15.0005 15.6465C17.233 15.6465 19.0477 13.8307 19.0477 11.5993V9.36464C19.0477 7.13323 17.2319 5.31738 15.0005 5.31738ZM17.1149 11.5993C17.1149 12.7655 16.1667 13.7136 15.0005 13.7136C13.8354 13.7136 12.8862 12.7655 12.8862 11.5993V9.36464C12.8862 8.19846 13.8344 7.25027 15.0005 7.25027C16.1667 7.25027 17.1149 8.19846 17.1149 9.36464V11.5993Z" fill="white"/>
<path d="M4.9762 15.0186C4.44251 15.0186 4.00977 15.4513 4.00977 15.985C4.00977 16.5187 4.44251 16.9514 4.9762 16.9514H6.3131C6.84678 16.9514 7.27953 16.5187 7.27953 15.985C7.27953 15.4513 6.84678 15.0186 6.3131 15.0186H4.9762Z" fill="white"/>
<path d="M23.6891 4.01416C23.1554 4.01416 22.7227 4.44691 22.7227 4.98061C22.7227 5.5143 23.1554 5.94705 23.6891 5.94705H25.026C25.5597 5.94705 25.9924 5.5143 25.9924 4.98061C25.9924 4.44691 25.5597 4.01416 25.026 4.01416H23.6891Z" fill="white"/>
<path d="M20.0586 14.4795V17.9899V21.5002C20.0586 23.4986 23.061 24.5434 26.0269 24.5434C28.996 24.5434 32.0005 23.4975 32.0005 21.5002V17.9899V14.4795C32.0005 10.4849 20.0586 10.4806 20.0586 14.4795ZM30.0708 17.9695C30.0418 18.0597 29.6628 18.4935 28.4505 18.8135C27.0234 19.1883 25.04 19.1893 23.6097 18.8135C22.3931 18.4924 22.0172 18.0618 21.9915 17.9899V16.7743C22.3276 16.9225 22.6959 17.0567 23.1104 17.1641C23.978 17.3993 24.9863 17.5228 26.0269 17.5228C27.0706 17.5228 28.0821 17.3982 28.939 17.1662C29.3578 17.0578 29.7304 16.9225 30.0698 16.7721L30.0708 17.9695ZM26.0258 13.3681C28.5267 13.3681 29.9119 14.152 30.0612 14.4774C29.9946 14.5976 29.593 15.0003 28.4429 15.2989C27.0352 15.679 25.0379 15.6844 23.6054 15.2967C22.4027 14.9842 22.0247 14.5611 21.9915 14.501V14.4946C22.0945 14.1821 23.4819 13.3681 26.0258 13.3681ZM26.0258 22.6106C23.4744 22.6106 22.086 21.7923 21.9904 21.4991V20.2857C22.3286 20.436 22.6991 20.5714 23.1157 20.682C23.9888 20.9118 24.9949 21.0331 26.0258 21.0331C27.0609 21.0331 28.0693 20.9118 28.9423 20.682C29.36 20.5724 29.7304 20.436 30.0687 20.2857L30.0698 21.4809C29.9731 21.7923 28.5815 22.6106 26.0258 22.6106Z" fill="white"/>
</svg>
