<svg width="32" height="27" viewBox="0 0 32 27" fill="none" xmlns="http://www.w3.org/2000/svg">
<path d="M31.0625 12.1348H29.8014C30.3809 10.9828 30.6875 9.70294 30.6875 8.37588C30.6875 6.13863 29.8162 4.03525 28.2343 2.45325C26.6523 0.87125 24.5489 0 22.3117 0C20.0744 0 17.9711 0.87125 16.3891 2.45325L16 2.84231L15.6109 2.45331C14.0289 0.871312 11.9256 6.24657e-05 9.68831 6.24657e-05C7.451 6.24657e-05 5.34769 0.871312 3.76569 2.45325C2.18375 4.03525 1.3125 6.13863 1.3125 8.37588C1.3125 9.70288 1.61906 10.9828 2.19863 12.1348H0.9375C0.41975 12.1348 0 12.5545 0 13.0723C0 13.59 0.41975 14.0098 0.9375 14.0098H3.49038C3.57969 14.1077 3.67138 14.2041 3.76575 14.2985L15.3371 25.8699C15.5202 26.0529 15.7601 26.1445 16 26.1445C16.2399 26.1445 16.4799 26.053 16.6629 25.8699L28.2342 14.2985C28.3286 14.2041 28.4203 14.1077 28.5096 14.0098H31.0625C31.5802 14.0098 32 13.59 32 13.0723C32 12.5545 31.5802 12.1348 31.0625 12.1348ZM3.1875 8.37588C3.1875 6.63944 3.86369 5.00694 5.09156 3.77906C6.31938 2.55119 7.95187 1.875 9.68831 1.875C11.4248 1.875 13.0573 2.55119 14.2851 3.77906L15.3371 4.831C15.7031 5.19712 16.2967 5.19712 16.6629 4.831L17.7148 3.77906C18.9427 2.55119 20.5752 1.875 22.3116 1.875C24.0481 1.875 25.6806 2.55119 26.9084 3.77906C28.1363 5.00694 28.8125 6.63944 28.8125 8.37588C28.8125 9.742 28.3937 11.0437 27.6173 12.1348H22.7034L20.6045 8.82063C20.4286 8.54294 20.1205 8.37806 19.7916 8.385C19.4631 8.39231 19.1623 8.57113 18.9989 8.85637L15.9255 14.2227L11.9613 6.39856C11.7961 6.07262 11.4554 5.87181 11.0916 5.88537C10.7264 5.89837 10.4021 6.12238 10.2606 6.45925L7.87694 12.1348H4.38275C3.60631 11.0437 3.1875 9.74206 3.1875 8.37588ZM16 23.8811L6.12862 14.0098H8.5C8.8775 14.0098 9.21819 13.7833 9.36438 13.4353L11.2046 9.05375L15.0387 16.621C15.1945 16.9285 15.5064 17.1257 15.8511 17.1345C15.8591 17.1347 15.8671 17.1348 15.8751 17.1348C16.2105 17.1348 16.5212 16.9553 16.6886 16.6632L19.8529 11.1383L21.3955 13.574C21.5674 13.8453 21.8662 14.0098 22.1875 14.0098H25.8714L16 23.8811Z" fill="white"/>
</svg>
