<svg width="32" height="32" viewBox="0 0 32 32" fill="none" xmlns="http://www.w3.org/2000/svg">
<path d="M18.6871 12.2812C18.5184 11.9938 18.2121 11.8125 17.8746 11.8125H14.1246C13.7871 11.8125 13.4809 11.9938 13.3121 12.2812L11.4371 15.5312C11.2684 15.8187 11.2684 16.1813 11.4371 16.4688L13.3121 19.7188C13.4809 20.0063 13.7871 20.1875 14.1246 20.1875H17.8746C18.2121 20.1875 18.5184 20.0063 18.6871 19.7188L20.5621 16.4688C20.7309 16.1813 20.7309 15.8187 20.5621 15.5312L18.6871 12.2812ZM17.3309 18.3125H14.6621L13.3309 16L14.6621 13.6875H17.3309L18.6621 16L17.3309 18.3125Z" fill="white"/>
<path d="M31.0625 15.0625H28.1875V14.125C28.1875 13.6062 27.7687 13.1875 27.25 13.1875H24.4375V11.3125H29.9375C30.4562 11.3125 30.875 10.8938 30.875 10.375C30.875 9.85625 30.4562 9.4375 29.9375 9.4375H24.4375V8.5C24.4375 7.98125 24.0187 7.5625 23.5 7.5625H22.5625V1.875H26C26.5187 1.875 26.9375 1.45625 26.9375 0.9375C26.9375 0.41875 26.5187 0 26 0H21.625C21.1063 0 20.6875 0.41875 20.6875 0.9375V7.5625H18.8125V4.75C18.8125 4.23125 18.3937 3.8125 17.875 3.8125H16.9375V0.9375C16.9375 0.41875 16.5187 0 16 0C15.4812 0 15.0625 0.41875 15.0625 0.9375V3.8125H14.125C13.6062 3.8125 13.1875 4.23125 13.1875 4.75V7.5625H11.3125V0.9375C11.3125 0.41875 10.8938 0 10.375 0H6C5.48125 0 5.0625 0.41875 5.0625 0.9375C5.0625 1.45625 5.48125 1.875 6 1.875H9.4375V7.5625H8.5C7.98125 7.5625 7.5625 7.98125 7.5625 8.5V9.4375H2.0625C1.54375 9.4375 1.125 9.85625 1.125 10.375C1.125 10.8938 1.54375 11.3125 2.0625 11.3125H7.5625V13.1875H4.75C4.23125 13.1875 3.8125 13.6062 3.8125 14.125V15.0625H0.9375C0.41875 15.0625 0 15.4812 0 16C0 16.5187 0.41875 16.9375 0.9375 16.9375H3.8125V17.875C3.8125 18.3937 4.23125 18.8125 4.75 18.8125H7.5625V20.6875H2.0625C1.54375 20.6875 1.125 21.1063 1.125 21.625C1.125 22.1437 1.54375 22.5625 2.0625 22.5625H7.5625V23.5C7.5625 24.0187 7.98125 24.4375 8.5 24.4375H9.4375V30.125H6C5.48125 30.125 5.0625 30.5438 5.0625 31.0625C5.0625 31.5812 5.48125 32 6 32H10.375C10.8938 32 11.3125 31.5812 11.3125 31.0625V24.4375H13.1875V27.25C13.1875 27.7687 13.6062 28.1875 14.125 28.1875H15.0625V31.0625C15.0625 31.5812 15.4812 32 16 32C16.5187 32 16.9375 31.5812 16.9375 31.0625V28.1875H17.875C18.3937 28.1875 18.8125 27.7687 18.8125 27.25V24.4375H20.6875V31.0625C20.6875 31.5812 21.1063 32 21.625 32H26C26.5187 32 26.9375 31.5812 26.9375 31.0625C26.9375 30.5438 26.5187 30.125 26 30.125H22.5625V24.4375H23.5C24.0187 24.4375 24.4375 24.0187 24.4375 23.5V22.5625H29.9375C30.4562 22.5625 30.875 22.1437 30.875 21.625C30.875 21.1063 30.4562 20.6875 29.9375 20.6875H24.4375V18.8125H27.25C27.7687 18.8125 28.1875 18.3937 28.1875 17.875V16.9375H31.0625C31.5812 16.9375 32 16.5187 32 16C32 15.4812 31.5812 15.0625 31.0625 15.0625ZM15.0625 5.6875H16.9375V7.5625H15.0625V5.6875ZM5.6875 16.9375V15.0625H7.5625V16.9375H5.6875ZM16.9375 26.3125H15.0625V24.4375H16.9375V26.3125ZM22.5625 22.5625H9.4375V9.4375H22.5625V22.5625ZM26.3125 16.9375H24.4375V15.0625H26.3125V16.9375Z" fill="white"/>
</svg>
