<svg width="32" height="32" viewBox="0 0 32 32" fill="none" xmlns="http://www.w3.org/2000/svg">
<path d="M25.4375 15.125C27.6811 15.125 29.5 16.9439 29.5 19.1875C29.5 20.3014 29.0512 21.31 28.3252 22.0439C30.5013 23.1124 32 25.3497 32 27.9375V31.0625C32 31.5722 31.5925 31.9872 31.0859 32H0.9375C0.427907 32 0.0129636 31.5934 0 31.0869V27.9375C5.95979e-06 25.3499 1.49799 23.1125 3.67383 22.0439C2.94811 21.3101 2.50001 20.3011 2.5 19.1875C2.50001 16.9439 4.31888 15.125 6.5625 15.125C8.80613 15.125 10.625 16.9439 10.625 19.1875C10.625 20.3014 10.1762 21.31 9.4502 22.0439C10.9472 22.7789 12.1217 24.0673 12.71 25.6426C12.9262 25.4718 13.1559 25.3177 13.3975 25.1816C12.8777 24.5794 12.5625 23.7955 12.5625 22.9375C12.5625 21.0391 14.1016 19.5 16 19.5C17.8984 19.5 19.4375 21.0391 19.4375 22.9375C19.4375 23.7957 19.1216 24.5793 18.6016 25.1816C18.8427 25.3174 19.0721 25.4711 19.2881 25.6416C19.8762 24.0667 21.0523 22.7799 22.5488 22.0449C21.8228 21.311 21.375 20.3014 21.375 19.1875C21.375 16.9439 23.1939 15.125 25.4375 15.125ZM25.4375 23.25C23.0039 23.25 21.0032 25.1049 20.7725 27.4775C21.1179 28.1823 21.3125 28.9746 21.3125 29.8125V30.125H30.125V27.9375C30.125 25.3488 28.0261 23.2502 25.4375 23.25ZM6.5625 23.25C3.97371 23.25 1.87501 25.3487 1.875 27.9375V30.125H10.6875V29.8125C10.6875 28.9748 10.8812 28.1822 11.2266 27.4775C10.9958 25.1049 8.99605 23.25 6.5625 23.25ZM16 26.375C14.1015 26.375 12.5625 27.914 12.5625 29.8125V30.125H19.4375V29.8125C19.4375 27.914 17.8985 26.375 16 26.375ZM16 21.375C15.1371 21.375 14.4375 22.0746 14.4375 22.9375C14.4375 23.8004 15.1371 24.5 16 24.5C16.8629 24.5 17.5625 23.8004 17.5625 22.9375C17.5625 22.0746 16.8629 21.375 16 21.375ZM6.5625 17C5.35442 17 4.37501 17.9794 4.375 19.1875C4.37501 20.3956 5.35442 21.375 6.5625 21.375C7.77059 21.375 8.74999 20.3956 8.75 19.1875C8.74999 17.9794 7.7706 17 6.5625 17ZM25.4375 17C24.2294 17 23.25 17.9794 23.25 19.1875C23.25 20.3956 24.2294 21.375 25.4375 21.375C26.6456 21.375 27.625 20.3956 27.625 19.1875C27.625 17.9794 26.6456 17 25.4375 17ZM18.5 0C18.8551 5.94406e-06 19.1801 0.200913 19.3389 0.518555L19.4707 0.782227C19.9971 1.83491 21.073 2.5 22.25 2.5C22.7678 2.50001 23.1875 2.91975 23.1875 3.4375V8.78711C23.1875 13.074 20.3755 16.853 16.2695 18.085C16.1048 18.1344 15.9297 18.138 15.7637 18.0947L15.7305 18.085C11.6244 16.853 8.8125 13.074 8.8125 8.78711V3.4375C8.81251 2.91974 9.23224 2.5 9.75 2.5H9.80469C10.96 2.4796 12.0111 1.81847 12.5293 0.782227L12.6611 0.518555C12.82 0.200988 13.1449 0 13.5 0H18.5ZM14.0703 1.875C13.3429 3.14133 12.1013 4.01542 10.6875 4.28613V8.78711C10.6875 12.1514 12.834 15.1282 16 16.2031C19.166 15.1282 21.3125 12.1514 21.3125 8.78711V4.28613C19.8987 4.01543 18.6571 3.14135 17.9297 1.875H14.0703ZM18.0059 6.61523C18.3731 6.26624 18.9531 6.27164 19.3135 6.63184C19.6738 6.99221 19.6801 7.57314 19.3311 7.94043L15.7783 11.4932C15.4179 11.8535 14.837 11.8589 14.4697 11.5098L14.4521 11.4932L12.6846 9.72559C12.3185 9.35948 12.3185 8.76554 12.6846 8.39941C13.0507 8.0333 13.6446 8.03331 14.0107 8.39941L15.1152 9.50391L17.9883 6.63184L18.0059 6.61523Z" fill="white"/>
</svg>
