<svg width="32" height="32" viewBox="0 0 32 32" fill="none" xmlns="http://www.w3.org/2000/svg">
<path d="M27.3125 22.625H4.6875C2.10281 22.625 0 24.7278 0 27.3125C0 29.8972 2.10281 32 4.6875 32H27.3125C29.8972 32 32 29.8972 32 27.3125C32 24.7278 29.8972 22.625 27.3125 22.625ZM23.5651 24.5C22.9752 25.284 22.625 26.2581 22.625 27.3125C22.625 28.3669 22.9752 29.341 23.5651 30.125H8.43494C9.02481 29.341 9.375 28.3669 9.375 27.3125C9.375 26.2581 9.02481 25.284 8.43494 24.5H23.5651ZM1.875 27.3125C1.875 25.7617 3.13669 24.5 4.6875 24.5C6.23831 24.5 7.5 25.7617 7.5 27.3125C7.5 28.8633 6.23831 30.125 4.6875 30.125C3.13669 30.125 1.875 28.8633 1.875 27.3125ZM27.3125 30.125C25.7617 30.125 24.5 28.8633 24.5 27.3125C24.5 25.7617 25.7617 24.5 27.3125 24.5C28.8633 24.5 30.125 25.7617 30.125 27.3125C30.125 28.8633 28.8633 30.125 27.3125 30.125Z" fill="white"/>
<path d="M6.67652 13.2317L8.46389 13.3311L7.2702 14.6652C6.93845 15.0361 6.95414 15.6014 7.30595 15.9532L10.2565 18.9037C10.6083 19.2555 11.1737 19.2712 11.5445 18.9394L12.8786 17.7458L12.9779 19.5332C13.0055 20.03 13.4164 20.4187 13.914 20.4187H18.0866C18.5842 20.4187 18.9951 20.0299 19.0227 19.5332L19.122 17.7458L20.4561 18.9394C20.8269 19.2712 21.3923 19.2556 21.7441 18.9037L24.6946 15.9532C25.0465 15.6014 25.0622 15.036 24.7304 14.6652L23.5368 13.3311L25.3241 13.2317C25.821 13.2041 26.2096 12.7932 26.2096 12.2956V8.12294C26.2096 7.62537 25.8209 7.2145 25.3241 7.18687L23.5367 7.08756L24.7304 5.75344C25.0622 5.38263 25.0465 4.81725 24.6946 4.46544L21.7441 1.51488C21.3922 1.163 20.8268 1.14737 20.4561 1.47913L19.122 2.67281L19.0227 0.885437C18.9952 0.38875 18.5843 0 18.0868 0H13.9141C13.4165 0 13.0056 0.388688 12.978 0.8855L12.8787 2.67287L11.5446 1.47919C11.1738 1.14731 10.6084 1.16306 10.2566 1.51494L7.30602 4.4655C6.9542 4.81731 6.93852 5.38275 7.27027 5.7535L8.46395 7.08763L6.67652 7.18694C6.1797 7.2145 5.79102 7.62544 5.79102 8.123V12.2957C5.79102 12.7932 6.17977 13.2041 6.67652 13.2317ZM7.66602 9.00981L9.31439 8.91825C9.69914 8.89688 10.0317 8.64225 10.1526 8.27631C10.2469 7.99094 10.3633 7.71019 10.4985 7.44194C10.6721 7.09762 10.6171 6.68213 10.3601 6.39475L9.25895 5.16419L10.9553 3.46781L12.186 4.56887C12.4733 4.82594 12.8888 4.88088 13.2331 4.70738C13.5013 4.57212 13.7821 4.45581 14.0675 4.36144C14.4333 4.24056 14.688 3.90806 14.7094 3.52331L14.801 1.875H17.2L17.2915 3.52338C17.3129 3.90812 17.5675 4.24069 17.9335 4.36156C18.2188 4.45581 18.4996 4.57219 18.7679 4.70744C19.1123 4.88106 19.5276 4.82606 19.815 4.56894L21.0456 3.46788L22.742 5.16425L21.6409 6.39481C21.3838 6.68219 21.3289 7.09762 21.5024 7.44194C21.6376 7.71025 21.754 7.991 21.8483 8.27637C21.9692 8.64225 22.3017 8.89694 22.6865 8.91831L24.3348 9.00988V11.4089L22.6865 11.5005C22.3017 11.5219 21.9691 11.7765 21.8483 12.1424C21.754 12.4278 21.6376 12.7086 21.5025 12.9768C21.3288 13.3211 21.3838 13.7365 21.6409 14.0239L22.742 15.2546L21.0456 16.9509L19.815 15.8498C19.5276 15.5927 19.1121 15.5378 18.7678 15.7114C18.4996 15.8466 18.2189 15.963 17.9335 16.0572C17.5676 16.1782 17.3129 16.5107 17.2915 16.8954L17.2 18.5438H14.801L14.7094 16.8954C14.688 16.5107 14.4333 16.1781 14.0675 16.0573C13.782 15.9629 13.5013 15.8466 13.2332 15.7114C12.8888 15.5378 12.4733 15.5927 12.186 15.8498L10.9553 16.9509L9.25895 15.2546L10.3601 14.0239C10.6172 13.7365 10.6721 13.3211 10.4985 12.9767C10.3633 12.7086 10.247 12.4279 10.1526 12.1424C10.0318 11.7766 9.69927 11.5219 9.31445 11.5005L7.66608 11.4089L7.66602 9.00981Z" fill="white"/>
<path d="M15.9991 14.3454C18.2796 14.3454 20.135 12.49 20.135 10.2095C20.135 7.92904 18.2796 6.07373 15.9991 6.07373C13.7186 6.07373 11.8633 7.92911 11.8633 10.2096C11.8633 12.4901 13.7186 14.3454 15.9991 14.3454ZM15.9991 7.94873C17.2457 7.94873 18.26 8.96298 18.26 10.2096C18.26 11.4562 17.2457 12.4704 15.9991 12.4704C14.7525 12.4704 13.7383 11.4562 13.7383 10.2096C13.7383 8.96292 14.7525 7.94873 15.9991 7.94873Z" fill="white"/>
<path d="M4.6875 28.25C5.20527 28.25 5.625 27.8303 5.625 27.3125C5.625 26.7947 5.20527 26.375 4.6875 26.375C4.16973 26.375 3.75 26.7947 3.75 27.3125C3.75 27.8303 4.16973 28.25 4.6875 28.25Z" fill="white"/>
<path d="M12.25 28.25C12.7678 28.25 13.1875 27.8303 13.1875 27.3125C13.1875 26.7947 12.7678 26.375 12.25 26.375C11.7322 26.375 11.3125 26.7947 11.3125 27.3125C11.3125 27.8303 11.7322 28.25 12.25 28.25Z" fill="white"/>
<path d="M16 28.25C16.5178 28.25 16.9375 27.8303 16.9375 27.3125C16.9375 26.7947 16.5178 26.375 16 26.375C15.4822 26.375 15.0625 26.7947 15.0625 27.3125C15.0625 27.8303 15.4822 28.25 16 28.25Z" fill="white"/>
<path d="M19.75 28.25C20.2678 28.25 20.6875 27.8303 20.6875 27.3125C20.6875 26.7947 20.2678 26.375 19.75 26.375C19.2322 26.375 18.8125 26.7947 18.8125 27.3125C18.8125 27.8303 19.2322 28.25 19.75 28.25Z" fill="white"/>
<path d="M27.3125 28.25C27.8303 28.25 28.25 27.8303 28.25 27.3125C28.25 26.7947 27.8303 26.375 27.3125 26.375C26.7947 26.375 26.375 26.7947 26.375 27.3125C26.375 27.8303 26.7947 28.25 27.3125 28.25Z" fill="white"/>
</svg>
