<svg width="35" height="32" viewBox="0 0 35 32" fill="none" xmlns="http://www.w3.org/2000/svg">
<path d="M31.1745 2.85061C27.2435 -1.10254 20.756 -0.906029 17.0133 3.20313C13.2703 -0.905884 6.78307 -1.10261 2.8521 2.85069C-1.05691 6.74355 -0.923747 13.1539 3.10388 16.9112C1.04334 18.8792 2.2238 22.4155 5.02842 22.7603C4.86042 24.6807 6.49499 26.4418 8.42848 26.4092C8.54703 28.5233 10.669 30.0367 12.7033 29.478C13.3707 31.9967 16.5792 32.8574 18.4198 31.0036C19.4652 29.9644 20.2966 29.3092 20.3496 27.7353C22.077 27.6872 23.5716 26.1723 23.5979 24.4459C25.3419 24.419 26.8613 22.8991 26.8881 21.1556C28.6973 21.1282 30.266 19.4953 30.1818 17.6519L31.1743 16.6594C34.9815 12.8523 34.9815 6.65766 31.1745 2.85061ZM4.60042 18.5003L5.53265 17.568C5.7736 17.3271 6.08997 17.2066 6.40648 17.2066C7.49174 17.1994 8.05822 18.5412 7.28017 19.3155L6.34794 20.2478C5.14123 21.3587 3.48934 19.7075 4.60042 18.5003ZM7.19981 22.9934C7.19981 22.6633 7.32839 22.353 7.56177 22.1196L8.49452 21.1869C8.72783 20.9538 9.03794 20.8255 9.36777 20.8255C10.4623 20.8236 11.017 22.1622 10.2415 22.9349L9.41897 23.7575C9.16755 24.0425 8.82216 24.2353 8.43546 24.2291C7.77138 24.2427 7.18606 23.6576 7.19981 22.9934ZM10.9618 27.0477C10.4824 26.5878 10.4824 25.7602 10.9618 25.3003L11.7843 24.4777C12.2639 23.9083 13.1058 23.8342 13.6416 24.368C14.1233 24.8498 14.1233 25.6336 13.6416 26.1155L12.7093 27.0478C12.2275 27.5298 11.4436 27.5297 10.9618 27.0477ZM17.8094 28.5286L16.8771 29.4608C16.6437 29.6942 16.3334 29.8228 16.0034 29.8228C15.6733 29.8228 15.3629 29.6942 15.1295 29.4608C14.6503 29.0008 14.65 28.1732 15.1296 27.7133L16.0618 26.781C16.5435 26.2992 17.3275 26.2992 17.8093 26.781C18.2887 27.241 18.2888 28.0686 17.8094 28.5286ZM27.6393 18.6164C27.1793 19.0958 26.3517 19.0958 25.8918 18.6164L21.0366 13.7613L19.4938 15.3041L24.349 20.1592C24.8307 20.641 24.8307 21.4249 24.349 21.9067C23.8671 22.3887 23.0833 22.3885 22.6014 21.9067L17.8286 17.1339L17.7463 17.0516L16.2035 18.5944L16.2858 18.6767L21.0587 23.4495C21.5405 23.9313 21.5405 24.7153 21.0587 25.1971C20.5768 25.6789 19.7929 25.6789 19.3111 25.1971L19.3101 25.198C18.4236 24.341 17.1847 24.0588 16.0657 24.3515C15.7095 22.8959 14.2462 21.7939 12.7748 21.826C12.7035 20.2593 11.3789 18.844 9.81367 18.6749C10.0202 15.9868 7.06802 14.1357 4.73824 15.4598C1.49353 12.5615 1.29367 7.47345 4.39503 4.3934C7.47857 1.28826 12.5735 1.49401 15.4706 4.74592L12.7734 7.44313L14.9347 9.6044C16.5949 11.2647 19.1532 11.4932 21.0606 10.2899L27.6395 16.8689C28.121 17.3506 28.121 18.1346 27.6393 18.6164ZM29.6317 15.1166L29.2992 15.449C29.2613 15.4073 29.2223 15.3662 29.1821 15.3261L21.1464 7.29025L20.3749 8.06161C19.3004 9.1361 17.552 9.13625 16.4773 8.06161L15.8589 7.44313L18.9086 4.3934C26.3168 -2.42511 36.4487 7.71324 29.6317 15.1166Z" fill="white"/>
</svg>
