<svg width="32" height="31" viewBox="0 0 32 31" fill="none" xmlns="http://www.w3.org/2000/svg">
<path d="M23.4447 19.0186H20.6738C19.9835 19.0186 19.4238 19.5782 19.4238 20.2686C19.4238 20.9589 19.9835 21.5186 20.6738 21.5186H23.4447C24.1351 21.5186 24.6947 20.9589 24.6947 20.2686C24.6947 19.5782 24.1351 19.0186 23.4447 19.0186Z" fill="white"/>
<path d="M23.4447 8.33936H20.6738C19.9835 8.33936 19.4238 8.89898 19.4238 9.58936C19.4238 10.2797 19.9835 10.8394 20.6738 10.8394H23.4447C24.1351 10.8394 24.6947 10.2797 24.6947 9.58936C24.6947 8.89898 24.1351 8.33936 23.4447 8.33936Z" fill="white"/>
<path d="M23.4447 13.6792H20.6738C19.9835 13.6792 19.4238 14.2388 19.4238 14.9292C19.4238 15.6196 19.9835 16.1792 20.6738 16.1792H23.4447C24.1351 16.1792 24.6947 15.6196 24.6947 14.9292C24.6947 14.2388 24.1351 13.6792 23.4447 13.6792Z" fill="white"/>
<path d="M30.75 28.3851H23.3093V25.7775C23.3093 25.0871 22.7497 24.5275 22.0593 24.5275C21.3689 24.5275 20.8093 25.0871 20.8093 25.7775V28.3851H16.619V3.6737C16.619 3.08951 17.0017 2.78563 17.1662 2.68213C17.3302 2.57888 17.7685 2.36601 18.293 2.61763L26.0597 6.34451C26.9344 6.76426 27.4996 7.66301 27.4996 8.6342V23.3851C27.4996 24.0755 28.0592 24.6351 28.7496 24.6351C29.4399 24.6351 29.9996 24.0755 29.9996 23.3851V8.63413C29.9996 6.7072 28.8776 4.92376 27.1413 4.09057L19.3746 0.363696C18.2313 -0.184929 16.9079 -0.109241 15.8346 0.566196C14.7604 1.2422 14.119 2.40388 14.119 3.6737V4.71063L4.67975 9.7117C3.02706 10.5874 2.00038 12.2937 2.00038 14.165V28.3851H1.25C0.559625 28.3851 0 28.9447 0 29.6351C0 30.3254 0.559625 30.8851 1.25 30.8851H30.75C31.4404 30.8851 32 30.3254 32 29.6351C32 28.9447 31.4404 28.3851 30.75 28.3851ZM4.50037 14.165C4.50037 13.2218 5.01756 12.3619 5.85019 11.9208L14.119 7.53982V15.1114H12.4661C9.6885 15.1114 7.42869 17.3711 7.42869 20.1488V28.3851H4.50037V14.165ZM9.92875 20.1488C9.92875 18.7496 11.067 17.6113 12.4662 17.6113H14.1191V28.385H9.92875V20.1488Z" fill="white"/>
</svg>
