<svg width="32" height="32" viewBox="0 0 32 32" fill="none" xmlns="http://www.w3.org/2000/svg">
<path fill-rule="evenodd" clip-rule="evenodd" d="M21.015 27H21C19.62 27 18.5 28.12 18.5 29.5C18.5 30.88 19.62 32 21 32H21.015C22.39 31.9915 23.5 30.8745 23.5 29.5C23.5 28.1255 22.39 27.0085 21.015 27ZM28.015 27H28C26.62 27 25.5 28.12 25.5 29.5C25.5 30.88 26.62 32 28 32H28.015C29.39 31.9915 30.5 30.8745 30.5 29.5C30.5 28.1255 29.39 27.0085 28.015 27ZM1.5 12.2735V26C1.5 28.209 3.29 30 5.5 30H16.5C17.05 30 17.5 29.552 17.5 29C17.5 28.448 17.05 28 16.5 28H5.5C4.395 28 3.5 27.1045 3.5 26V13.6245C4.12 13.867 4.795 14 5.5 14C7.365 14 9.005 13.0725 10 11.6545C10.995 13.073 12.635 14 14.5 14C16.365 14 18.005 13.079 19 11.6595C19.995 13.0785 21.635 14 23.5 14C24.205 14 24.88 13.867 25.5 13.6245V14.5C25.5 15.052 25.95 15.5 26.5 15.5C27.05 15.5 27.5 15.052 27.5 14.5V12.2735C28.43 11.288 29 9.96 29 8.5C29 8.5 29 6.0885 29 4C29 2.939 28.58 1.9215 27.83 1.1715C27.08 0.421501 26.06 0 25 0H4C2.94 0 1.91998 0.421501 1.16998 1.1715C0.419983 1.9215 0 2.939 0 4V8.5C0 9.96 0.57 11.288 1.5 12.2735ZM21 29H21.005C21.28 29.0035 21.5 29.226 21.5 29.5C21.5 29.774 21.28 29.9965 21.005 30H21C20.725 30 20.5 29.776 20.5 29.5C20.5 29.224 20.725 29 21 29ZM28 29H28.005C28.28 29.0035 28.5 29.226 28.5 29.5C28.5 29.774 28.28 29.9965 28.005 30H28C27.725 30 27.5 29.776 27.5 29.5C27.5 29.224 27.725 29 28 29ZM17.71 15H17.7H15.5C14.95 15 14.5 15.448 14.5 16C14.5 16.552 14.95 17 15.5 17H16.88L18.2 23.5885C18.48 24.9905 19.71 26 21.14 26H27.86H27.875C29.3 25.992 30.525 24.985 30.8 23.5885L31.98 17.696C32.04 17.4025 31.965 17.0975 31.775 16.866C31.585 16.6345 31.3 16.5 31 16.5H18.82L18.68 15.804C18.59 15.34 18.185 15.0055 17.71 15ZM29.78 18.5H19.22L20.16 23.196C20.255 23.6635 20.665 24 21.14 24H27.86H27.87C28.345 23.9945 28.75 23.66 28.84 23.196L29.78 18.5ZM27 8.5V4C27 3.4695 26.79 2.961 26.415 2.586C26.04 2.2105 25.53 2 25 2H4C3.47 2 2.96002 2.2105 2.58502 2.586C2.21002 2.961 2 3.4695 2 4V8.5C2 10.4315 3.57 12 5.5 12C7.435 12 8.99 10.428 9 8.495C9.005 7.9445 9.45 7.5 10 7.5C10.55 7.5 10.995 7.9445 11 8.495C11.01 10.429 12.565 12 14.5 12C16.435 12 17.985 10.4395 18 8.493C18.005 7.9435 18.45 7.5 19 7.5C19.55 7.5 19.995 7.94299 20 8.49249C20.015 10.439 21.565 12 23.5 12C25.43 12 27 10.4315 27 8.5Z" fill="white"/>
</svg>
