<svg width="20" height="21" viewBox="0 0 20 21" fill="none" xmlns="http://www.w3.org/2000/svg">
<path d="M18.8381 8.90101L18.837 8.89947L12.6968 0.471937C12.2368 -0.159399 11.4928 -0.15705 11.0349 0.477446C10.577 1.11186 10.5788 2.138 11.0388 2.76941L15.1613 8.42753H1.20344C0.55442 8.42753 0.0283203 9.15311 0.0283203 10.0482C0.0283203 10.9433 0.55442 11.6689 1.20344 11.6689H15.1613L11.0389 17.327C10.5789 17.9584 10.5771 18.9846 11.0349 19.619C11.4928 20.2536 12.2369 20.2557 12.6968 19.6245L18.8371 11.1969L18.8381 11.1954C19.2983 10.5619 19.2969 9.53243 18.8381 8.90101Z" fill="white"/>
</svg>
