<svg width="55" height="41" viewBox="0 0 55 41" fill="none" xmlns="http://www.w3.org/2000/svg">
<path d="M3.14076 40.5C1.04692 34.5741 0 28.6975 0 22.8704C0 16.1543 1.79472 10.7716 5.38416 6.72223C8.97361 2.57408 14.2082 0.5 21.088 0.5V9.83334C15.8035 9.83334 13.1613 13.1914 13.1613 19.9074V22.1296H22.7331V40.5H3.14076ZM35.4076 40.5C33.4135 34.4753 32.4164 28.5988 32.4164 22.8704C32.4164 16.1543 34.1613 10.7716 37.651 6.72223C41.2405 2.57408 46.4751 0.5 53.3548 0.5V9.83334C48.1701 9.83334 45.5777 13.1914 45.5777 19.9074V22.1296H55V40.5H35.4076Z" fill="#FFBF36"/>
</svg>
