<svg width="42" height="42" viewBox="0 0 42 42" fill="none" xmlns="http://www.w3.org/2000/svg">
<path d="M0.364258 0H41.9629V41.5987H0.364258V0Z" fill="#FBE4EC"/>
<path d="M31.0528 26.726L32.5936 25.748L32.0219 24.3396L30.2582 24.7504C30.0063 24.3983 29.6962 24.0853 29.3473 23.8213L29.7446 22.0413L28.3589 21.4545L27.4092 22.9997C26.9731 22.9313 26.5371 22.9313 26.1107 22.99L25.161 21.4447L23.7656 22.0217L24.1532 23.8017C23.8044 24.056 23.4943 24.369 23.2229 24.7308L21.4786 24.3103L20.8972 25.7089L22.4089 26.6967C22.3411 27.1368 22.3411 27.5769 22.4089 28.0072L20.8778 28.9559L21.4496 30.3643L23.2132 29.9731C23.4652 30.3251 23.7753 30.6381 24.1338 30.9022L23.7171 32.6724L25.1029 33.2592L26.0816 31.7237C26.5177 31.7922 26.9538 31.7922 27.3801 31.7237L28.3492 33.2788L29.7446 32.7017L29.3376 30.912C29.6768 30.6577 29.9869 30.3447 30.2485 29.9926L32.0219 30.3936L32.6033 28.995L31.0625 28.0268C31.111 27.5867 31.111 27.1563 31.0528 26.726ZM28.669 28.1833C28.2232 29.2591 26.9925 29.7677 25.9169 29.3178C24.8509 28.8679 24.3373 27.6258 24.7928 26.5402C25.2385 25.4644 26.4692 24.946 27.5449 25.4057C28.6205 25.8654 29.1244 27.0977 28.669 28.1833Z" fill="#C3185C"/>
<path d="M14.3658 17.5481H23.6493V19.1632H14.3658V17.5481Z" fill="#C3185C"/>
<path d="M14.3658 21.1819H22.0924V22.797H14.3658V21.1819Z" fill="#C3185C"/>
<path d="M14.3658 24.8158H19.3082V26.4309H14.3658V24.8158Z" fill="#C3185C"/>
<path d="M11.5749 28.9364V16.7599C11.5749 15.8308 12.5052 15.821 13.4355 15.821H16.2167C16.7303 15.821 17.147 15.4005 17.147 14.8821V12.0263C17.147 11.195 17.1373 10.3637 17.8059 10.1974H24.5699C25.5971 10.1974 26.4305 11.0385 26.4305 12.0752V20.5058H28.2911V12.0654C28.2911 10.0018 26.6243 8.31958 24.5699 8.31958H17.147C16.1586 8.31958 15.2186 9.2487 13.6196 10.882C13.3968 11.107 13.1739 11.3417 12.9413 11.5764C12.7087 11.8111 12.4762 12.0361 12.2533 12.261C10.6447 13.865 9.72406 14.8234 9.72406 15.821V28.9461C9.72406 31.0098 11.3908 32.692 13.4355 32.692H22.719V30.8142H13.4355C12.4083 30.8142 11.5749 29.9731 11.5749 28.9364Z" fill="#C3185C"/>
</svg>
