<svg width="42" height="42" viewBox="0 0 42 42" fill="none" xmlns="http://www.w3.org/2000/svg">
<path d="M0 0H41.5987V41.5987H0V0Z" fill="#F3E5F6"/>
<path d="M29.2857 23.0177C32.5049 22.9412 33.0073 18.4753 29.9308 17.6592V16.4995C29.9448 14.2842 27.9669 12.5141 25.7677 12.7673C23.7209 9.07692 18.2668 9.07821 16.221 12.7673C14.0217 12.5142 12.044 14.2842 12.0579 16.4996V17.6592C8.97927 18.4767 9.48625 22.9422 12.703 23.0177H15.5126V23.4873L14.2961 24.7039C12.9842 24.0257 11.3471 25.0348 11.367 26.5184C11.367 27.636 12.2763 28.5453 13.3939 28.5453C14.8774 28.565 15.8867 26.9281 15.2083 25.6162L16.6139 24.2107C16.7348 24.0897 16.8028 23.9256 16.8028 23.7546V23.0177H18.9674V24.8692L17.7744 26.0621C17.6535 26.1831 17.5855 26.3472 17.5855 26.5182V28.0519C15.4403 28.8089 15.9279 31.9548 18.2306 32C20.5336 31.9545 21.0205 28.8086 18.8756 28.0519V26.7855L20.0686 25.5925C20.1896 25.4715 20.2575 25.3075 20.2575 25.1364V23.0177H21.7312V25.1364C21.7312 25.3075 21.7991 25.4715 21.9202 25.5925L23.1131 26.7855V28.0519C20.9679 28.809 21.4555 31.9548 23.7582 32C26.0612 31.9546 26.5481 28.8086 24.4032 28.0519V26.5183C24.4032 26.3472 24.3353 26.1831 24.2143 26.0622L23.0213 24.8692V23.0177H25.1859V23.7545C25.1859 23.9256 25.2539 24.0896 25.3749 24.2106L26.7804 25.6161C26.1021 26.9279 27.1113 28.5651 28.5948 28.5452C29.7125 28.5452 30.6217 27.6359 30.6217 26.5182C30.6414 25.0348 29.0045 24.0255 27.6926 24.7039L26.4761 23.4872V23.0177H29.2857ZM13.3939 27.2551C12.9877 27.2551 12.6571 26.9246 12.6571 26.5183C12.6942 25.5422 14.0939 25.5424 14.1308 26.5183C14.1308 26.9246 13.8002 27.2551 13.3939 27.2551ZM18.9674 29.973C18.9674 30.3793 18.6369 30.7098 18.2306 30.7098C17.2545 30.6728 17.2547 29.2731 18.2306 29.2362C18.6369 29.2362 18.9674 29.5667 18.9674 29.973ZM23.7582 29.2362C24.1644 29.2362 24.495 29.5667 24.495 29.973C24.4579 30.9491 23.0582 30.9489 23.0213 29.973C23.0213 29.5667 23.3518 29.2362 23.7582 29.2362ZM28.5948 25.7815C29.001 25.7815 29.3316 26.112 29.3316 26.5183C29.2945 27.4945 27.8948 27.4942 27.8579 26.5183C27.8579 26.112 28.1885 25.7815 28.5948 25.7815ZM12.703 21.7275C11.9157 21.7275 11.2752 21.087 11.2752 20.2998C11.2752 19.5125 11.9157 18.872 12.703 18.872C13.0592 18.872 13.3481 18.5832 13.3481 18.2269V16.4995C13.3263 14.9173 14.8951 13.7031 16.4203 14.111C16.724 14.1884 17.0396 14.0362 17.168 13.7502C18.6271 10.4665 23.3625 10.4678 24.8207 13.7502C24.9491 14.0362 25.2644 14.1884 25.5685 14.111C27.0938 13.7031 28.6624 14.9174 28.6407 16.4995V18.2269C28.6407 18.5832 28.9295 18.872 29.2858 18.872C30.073 18.872 30.7135 19.5125 30.7135 20.2998C30.7135 21.0871 30.073 21.7275 29.2858 21.7275H12.703Z" fill="#6A1B9A"/>
<path d="M18.9674 14.8181C17.8578 14.8181 16.9405 15.7148 16.9405 16.8451V19.6089C16.9722 20.4639 18.1992 20.4632 18.2306 19.6089V18.8721H19.7043V19.6089C19.736 20.4639 20.963 20.4632 20.9944 19.6089V16.8451C20.9944 15.7375 20.0997 14.8181 18.9674 14.8181ZM19.7042 17.5819H18.2306V16.8451C18.2662 15.8693 19.6682 15.8683 19.7042 16.8451V17.5819Z" fill="#6A1B9A"/>
<path d="M24.4489 16.1083C25.3039 16.0765 25.3033 14.8496 24.4489 14.8181H22.3761C21.5211 14.8499 21.5218 16.0768 22.3761 16.1083H22.7674V18.9638H22.3761C21.5211 18.9955 21.5218 20.2225 22.3761 20.2539H24.4489C25.3039 20.2222 25.3033 18.9952 24.4489 18.9638H24.0576V16.1083H24.4489Z" fill="#6A1B9A"/>
</svg>
