<svg width="43" height="42" viewBox="0 0 43 42" fill="none" xmlns="http://www.w3.org/2000/svg">
<path d="M0.44043 0H42.0391V41.5987H0.44043V0Z" fill="#E8EAF6"/>
<path d="M23.0223 31H19.9735C19.2291 31 18.5957 30.4912 18.4326 29.7634L18.0457 28.0465C17.416 27.7798 16.8165 27.4314 16.2546 27.007L14.5844 27.5341C13.8676 27.755 13.0884 27.4516 12.7291 26.8118L11.2092 24.1827C10.8453 23.5319 10.9681 22.7298 11.5044 22.2257L12.7987 21.0358C12.7593 20.6875 12.7391 20.3401 12.7391 20C12.7391 19.6599 12.7584 19.3125 12.7978 18.9642L11.5099 17.7798C10.9681 17.2702 10.8444 16.469 11.2046 15.8264L12.7336 13.1818C13.0893 12.5493 13.8676 12.2432 14.5826 12.4659L16.2546 12.993C16.8165 12.5686 17.4169 12.2202 18.0457 11.9535L18.4326 10.2357C18.5957 9.50875 19.2291 9 19.9735 9H23.0223C23.7666 9 24.4001 9.50875 24.5632 10.2366L24.9501 11.9535C25.5798 12.2202 26.1793 12.5686 26.7412 12.993L28.4114 12.4659C29.1264 12.2422 29.9065 12.5484 30.2667 13.1883L31.7866 15.8172C32.1505 16.4681 32.0276 17.2702 31.4914 17.7743L30.1971 18.9642C30.2365 19.3125 30.2557 19.6599 30.2557 20C30.2557 20.3401 30.2365 20.6875 30.1971 21.0358L31.4859 22.2202C31.4877 22.222 31.4896 22.2238 31.4914 22.2257C32.0276 22.7298 32.1514 23.531 31.7911 24.1736L30.2621 26.8182C29.9056 27.4507 29.1273 27.7568 28.4132 27.5341L26.7403 27.0061C26.1784 27.4305 25.578 27.7788 24.9491 28.0456L24.5623 29.7634C24.4001 30.4912 23.7666 31 23.0223 31ZM16.3957 25.5541C16.5534 25.5541 16.7083 25.6082 16.8339 25.7108C17.4618 26.2288 18.1493 26.6275 18.8762 26.8961C19.0944 26.9768 19.2576 27.1628 19.3089 27.3902L19.7755 29.4618C19.7966 29.5563 19.8809 29.625 19.9753 29.625H23.0241C23.1186 29.625 23.202 29.5562 23.224 29.4627L23.6906 27.3911C23.7419 27.1637 23.9041 26.9777 24.1232 26.897C24.8501 26.6284 25.5376 26.2288 26.1656 25.7118C26.3452 25.5633 26.5863 25.5156 26.81 25.5862L28.8276 26.2232C28.9229 26.2526 29.0256 26.2196 29.0705 26.138L30.5995 23.4943C30.6453 23.4128 30.6288 23.3009 30.5546 23.2294L29.0072 21.8068C28.8386 21.6518 28.7588 21.4245 28.7936 21.1981C28.8541 20.7948 28.8853 20.3914 28.8853 20C28.8853 19.6086 28.8551 19.2062 28.7936 18.8019C28.7597 18.5755 28.8395 18.3482 29.0072 18.1933L30.5582 16.7669C30.6279 16.7009 30.6462 16.5882 30.5949 16.4974L29.0751 13.8693C29.0256 13.7822 28.9266 13.7483 28.8257 13.7777L26.8109 14.4138C26.5872 14.4844 26.3461 14.4367 26.1665 14.2882C25.5386 13.7703 24.8511 13.3716 24.1241 13.103C23.906 13.0223 23.7428 12.8363 23.6915 12.6089L23.2249 10.5373C23.2001 10.4438 23.1167 10.375 23.0223 10.375H19.9735C19.8791 10.375 19.7956 10.4438 19.7736 10.5373L19.3071 12.6098C19.2566 12.8372 19.0935 13.0223 18.8753 13.1039C18.1484 13.3725 17.4609 13.7713 16.833 14.2892C16.6533 14.4377 16.4122 14.4844 16.1886 14.4148L14.171 13.7777C14.0756 13.7483 13.973 13.7822 13.9281 13.8629L12.3991 16.5057C12.3523 16.5882 12.3706 16.7009 12.4458 16.7724L13.9922 18.1933C14.1609 18.3482 14.2406 18.5755 14.2058 18.8019C14.1453 19.2052 14.1141 19.6086 14.1141 20C14.1141 20.3914 14.1444 20.7938 14.2058 21.1981C14.2397 21.4245 14.16 21.6518 13.9922 21.8068L12.4412 23.2331C12.3716 23.2991 12.3532 23.4118 12.4046 23.5026L13.9244 26.1307C13.9748 26.2187 14.0747 26.2544 14.1737 26.2223L16.1886 25.5862C16.2564 25.5642 16.3261 25.5541 16.3957 25.5541Z" fill="#313FA0"/>
<path d="M20.8114 23.6666C20.7591 23.6666 20.7078 23.6611 20.6555 23.6492C20.2861 23.5639 20.0551 23.1945 20.1404 22.8251L21.5154 16.8668C21.6006 16.4955 21.9746 16.2673 22.3395 16.3507C22.7089 16.4359 22.9399 16.8053 22.8546 17.1748L21.4796 23.1331C21.4063 23.4521 21.124 23.6666 20.8114 23.6666Z" fill="#313FA0"/>
<path d="M24.4772 22.7499C24.2893 22.7499 24.1023 22.6739 23.9657 22.5226C23.7118 22.2403 23.7347 21.8058 24.017 21.551L25.7413 19.9999L24.017 18.4489C23.7347 18.195 23.7118 17.7605 23.9657 17.4773C24.2205 17.1959 24.655 17.173 24.9374 17.426L27.229 19.4885C27.3739 19.6195 27.4564 19.8056 27.4564 19.9999C27.4564 20.1943 27.3739 20.3804 27.229 20.5114L24.9374 22.5739C24.8054 22.6922 24.6413 22.7499 24.4772 22.7499Z" fill="#313FA0"/>
<path d="M18.519 22.7499C18.3549 22.7499 18.1909 22.6922 18.0589 22.5739L15.7672 20.5114C15.6224 20.3803 15.5399 20.1942 15.5399 19.9999C15.5399 19.8056 15.6224 19.6195 15.7672 19.4884L18.0589 17.4259C18.3412 17.172 18.7748 17.1949 19.0305 17.4772C19.2844 17.7596 19.2615 18.1941 18.9792 18.4489L17.2549 19.9999L18.9792 21.5509C19.2615 21.8048 19.2844 22.2393 19.0305 22.5226C18.8939 22.6738 18.7069 22.7499 18.519 22.7499Z" fill="#313FA0"/>
</svg>
