<svg width="43" height="42" viewBox="0 0 43 42" fill="none" xmlns="http://www.w3.org/2000/svg">
<path d="M0.44043 0H42.0391V41.5987H0.44043V0Z" fill="#FFF3E0"/>
<path d="M23.337 9.66138C23.6347 9.71403 23.8774 9.94286 23.9406 10.2473L24.4376 12.6477L24.8898 12.8997L26.7277 11.5002C27.0244 11.2742 27.4422 11.3011 27.7081 11.5627L30.4611 14.2717C30.7157 14.5223 30.7591 14.918 30.5636 15.217L29.2081 17.2883L29.3771 17.6887L31.7775 18.1399C32.1319 18.2066 32.3897 18.5165 32.3898 18.8772V22.6018C32.3897 22.9436 32.1581 23.2417 31.8273 23.3274L29.4865 23.9329L29.254 24.5139L30.588 26.3704C30.8007 26.6665 30.77 27.0729 30.5148 27.3333L27.8927 30.0061C27.6428 30.261 27.2477 30.3051 26.9484 30.1106L24.9152 28.7883L24.3663 29.0081L24.0363 31.3059C23.9811 31.6878 23.6444 31.9661 23.2589 31.9485L19.4142 31.7727C19.0676 31.7569 18.7764 31.505 18.7111 31.1643L18.3048 29.0481L17.8224 28.8401L15.8009 30.1926C15.4957 30.3964 15.0879 30.3492 14.837 30.0813L12.1281 27.1897C11.8814 26.9264 11.8573 26.5247 12.0704 26.2336L13.3956 24.4241L13.1417 23.7971L10.714 23.385C10.3537 23.3236 10.0901 23.0113 10.09 22.6458V18.9211C10.09 18.5462 10.3669 18.2288 10.7384 18.178L13.2052 17.8401L13.4728 17.2249L11.9894 15.2581C11.769 14.9658 11.7917 14.5572 12.0431 14.2913L12.9171 13.3665L12.9757 13.3118L13.8322 12.5793L14.9513 11.5022L15.0587 11.4153C15.3238 11.2402 15.678 11.2498 15.9357 11.4524L17.8341 12.9456L18.3351 12.761L18.7062 10.2883L18.7384 10.1555C18.8407 9.85753 19.1235 9.64966 19.4484 9.64966H23.2062L23.337 9.66138ZM19.7531 13.4231C19.7125 13.6938 19.5275 13.9212 19.2706 14.0159L17.9591 14.4983C17.7148 14.5881 17.4411 14.5449 17.2365 14.384L15.5216 13.0344L14.8566 13.677C14.8456 13.6876 14.8339 13.6974 14.8224 13.7073L13.9835 14.4221L13.5685 14.8606L14.9347 16.6731C15.0974 16.8891 15.1316 17.1761 15.0236 17.4241L14.4113 18.8264C14.3067 19.0661 14.0853 19.2342 13.8263 19.2698L11.59 19.5754V22.012L13.8058 22.3879C14.0622 22.4315 14.2785 22.6049 14.3761 22.8459L14.9435 24.2483C15.041 24.4891 15.0071 24.7633 14.8536 24.9729L13.6476 26.6174L15.4962 28.5911L17.3273 27.3674C17.5384 27.2263 17.8068 27.2018 18.0402 27.302L19.2638 27.8284L19.3468 27.8694C19.5321 27.9778 19.6632 28.1625 19.7042 28.3762L20.0724 30.3L22.6476 30.4182L22.9445 28.3665C22.9827 28.1017 23.1591 27.8773 23.4073 27.7776L24.7189 27.2512L24.8048 27.2229C25.0084 27.1687 25.2273 27.2023 25.4064 27.3186L27.2511 28.5178L29.0021 26.7327L27.797 25.0549C27.6476 24.8469 27.6142 24.5769 27.7091 24.3391L28.2345 23.0247L28.2716 22.9446C28.3702 22.7633 28.54 22.6288 28.7423 22.5764L30.8898 22.0198V19.4993L28.7042 19.0881C28.457 19.0416 28.2492 18.8746 28.1515 18.6428L27.671 17.5042C27.5741 17.2743 27.598 17.0108 27.7345 16.802L28.9708 14.9094L27.1193 13.0872L25.4083 14.3909C25.1711 14.5716 24.8495 14.5946 24.589 14.4495L23.4093 13.7922C23.219 13.6862 23.0834 13.5026 23.0392 13.2893L22.5958 11.1497H20.0939L19.7531 13.4231ZM21.2404 15.0862C24.5262 15.0864 27.1896 17.7505 27.1896 21.0364C27.1892 24.3219 24.526 26.9854 21.2404 26.9856C17.9546 26.9856 15.2906 24.322 15.2902 21.0364C15.2902 17.7504 17.9544 15.0862 21.2404 15.0862ZM21.2404 16.5862C18.7828 16.5862 16.7902 18.5788 16.7902 21.0364C16.7905 22.9977 18.0604 24.6612 19.8224 25.2532V23.2395C18.9747 22.7309 18.4034 21.7833 18.4034 20.6965C18.4035 19.4529 19.1498 18.3932 20.2042 17.9631L20.1945 20.3792L21.3351 21.4846L22.4747 20.3997V18.0588C23.4234 18.5351 24.0753 19.5344 24.0753 20.6965C24.0753 21.7818 23.5046 22.7285 22.6583 23.2375V25.2532C24.42 24.661 25.6893 22.9976 25.6896 21.0364C25.6896 18.5789 23.6978 16.5864 21.2404 16.5862Z" fill="#E65100"/>
</svg>
