<svg width="43" height="42" viewBox="0 0 43 42" fill="none" xmlns="http://www.w3.org/2000/svg">
<rect x="0.44043" width="41.5987" height="41.5987" fill="#E1F5FE"/>
<path d="M26.0417 17.4097C27.7796 17.4097 29.1934 15.9959 29.1934 14.258V12.1517C29.1934 10.4138 27.7796 9 26.0417 9H16.642C14.904 9 13.4902 10.4138 13.4902 12.1517V14.2588C13.4902 15.9967 14.904 17.4105 16.642 17.4105H18.8575L20.4463 19.1299C20.6767 19.3787 21.003 19.5212 21.3418 19.5212C21.6807 19.5212 22.007 19.3787 22.2374 19.1299L23.8262 17.4105L26.0417 17.4097ZM23.0473 16.2942L21.3418 18.1399L19.6364 16.2942C19.5109 16.1576 19.3337 16.0808 19.1484 16.0808H16.642C15.6372 16.0808 14.8191 15.2628 14.8191 14.258V12.1517C14.8191 11.1469 15.6364 10.3289 16.642 10.3289H26.041C27.0458 10.3289 27.8638 11.1462 27.8638 12.1517V14.2588C27.8638 15.2636 27.0465 16.0816 26.041 16.0816H23.5345C23.35 16.0808 23.1728 16.1584 23.0473 16.2942Z" fill="#039BE6"/>
<path d="M18.4625 12.5408H18.2167C17.8498 12.5408 17.5522 12.8383 17.5522 13.2052C17.5522 13.5721 17.8498 13.8697 18.2167 13.8697H18.4625C18.8295 13.8697 19.127 13.5721 19.127 13.2052C19.127 12.8383 18.8295 12.5408 18.4625 12.5408Z" fill="#039BE6"/>
<path d="M21.4642 12.5408H21.2191C20.8522 12.5408 20.5547 12.8383 20.5547 13.2052C20.5547 13.5721 20.8522 13.8697 21.2191 13.8697H21.4642C21.8312 13.8697 22.1287 13.5721 22.1287 13.2052C22.1287 12.8383 21.8312 12.5408 21.4642 12.5408Z" fill="#039BE6"/>
<path d="M24.4661 12.5408H24.221C23.854 12.5408 23.5565 12.8383 23.5565 13.2052C23.5565 13.5721 23.854 13.8697 24.221 13.8697H24.4668C24.8337 13.8697 25.1313 13.5721 25.1313 13.2052C25.1313 12.8383 24.833 12.5408 24.4661 12.5408Z" fill="#039BE6"/>
<path d="M29.5318 25.5359C30.1778 24.9142 30.5838 24.0453 30.5838 23.0796C30.5838 21.1962 29.0511 19.6636 27.1678 19.6636C25.2844 19.6636 23.7518 21.1962 23.7518 23.0796C23.7518 24.0453 24.1578 24.9142 24.8038 25.5359C23.5369 26.1368 22.6525 27.4177 22.6525 28.9105V29.3505C22.6525 29.9973 23.1117 30.5547 23.7444 30.675C24.8703 30.8906 26.022 30.9999 27.167 30.9999C28.3121 30.9999 29.4638 30.8906 30.5897 30.675C31.2224 30.5539 31.6816 29.9973 31.6816 29.3505V28.9105C31.6831 27.4185 30.7986 26.1368 29.5318 25.5359ZM27.1685 20.9925C28.3195 20.9925 29.2556 21.9286 29.2556 23.0796C29.2556 24.2306 28.3195 25.1667 27.1685 25.1667C26.0175 25.1667 25.0814 24.2306 25.0814 23.0796C25.0814 21.9286 26.0175 20.9925 27.1685 20.9925ZM30.3417 29.3705C28.4059 29.7411 26.4015 29.7522 24.4553 29.4362C24.2974 29.4089 24.1394 29.3838 23.9821 29.3505V28.9105C23.9821 27.5787 25.0652 26.4956 26.397 26.4956H27.9393C29.2711 26.4956 30.3542 27.5787 30.3542 28.9105L30.3417 29.3705Z" fill="#039BE6"/>
<path d="M17.8793 25.5359C18.5253 24.9142 18.9313 24.0453 18.9313 23.0796C18.9313 21.1962 17.3987 19.6636 15.5153 19.6636C13.632 19.6636 12.0993 21.1962 12.0993 23.0796C12.0993 24.0453 12.5054 24.9142 13.1513 25.5359C11.8845 26.1368 11 27.4177 11 28.9105V29.3505C11 29.9973 11.4592 30.5547 12.0919 30.675C13.2178 30.8906 14.3695 30.9999 15.5146 30.9999C16.6597 30.9999 17.8114 30.8906 18.9372 30.675C19.57 30.5539 20.0292 29.9973 20.0292 29.3505V28.9105C20.0306 27.4185 19.1462 26.1368 17.8793 25.5359ZM15.5153 20.9925C16.6663 20.9925 17.6024 21.9286 17.6024 23.0796C17.6024 24.2306 16.6663 25.1667 15.5153 25.1667C14.3643 25.1667 13.4282 24.2306 13.4282 23.0796C13.4282 21.9286 14.3643 20.9925 15.5153 20.9925ZM18.6892 29.3705C16.7534 29.7411 14.749 29.7522 12.8029 29.4362C12.6449 29.4089 12.4869 29.3838 12.3296 29.3505V28.9105C12.3296 27.5787 13.4127 26.4956 14.7446 26.4956H16.2868C17.6187 26.4956 18.7017 27.5787 18.7017 28.9105L18.6892 29.3705Z" fill="#039BE6"/>
</svg>
