<svg width="43" height="42" viewBox="0 0 43 42" fill="none" xmlns="http://www.w3.org/2000/svg">
<path d="M0.44043 0H42.0391V41.5987H0.44043V0Z" fill="#E8F6E9"/>
<path d="M28.3152 21.6471C28.5823 22.4002 29.3015 22.9412 30.1451 22.9412C31.2155 22.9412 32.0863 22.0704 32.0863 21C32.0863 19.9296 31.2155 19.0588 30.1451 19.0588C29.3015 19.0588 28.5823 19.5998 28.3152 20.3529H23.3725V18.6275H27.5569C27.7082 18.6275 27.8548 18.5744 27.9711 18.4775L29.154 17.4917C29.4443 17.6649 29.7832 17.7647 30.1451 17.7647C31.2155 17.7647 32.0863 16.8939 32.0863 15.8235C32.0863 14.7532 31.2155 13.8824 30.1451 13.8824C29.0747 13.8824 28.2039 14.7532 28.2039 15.8235C28.2039 16.0606 28.2468 16.2878 28.325 16.498L27.3226 17.3333H23.3725V12.5882H25.2956C25.5627 13.3414 26.2819 13.8824 27.1255 13.8824C28.1959 13.8824 29.0667 13.0115 29.0667 11.9412C29.0667 10.8708 28.1959 10 27.1255 10C26.2819 10 25.5627 10.541 25.2956 11.2941H23.3725V10.6471C23.3725 10.2897 23.0828 10 22.7255 10H19.2745C18.9172 10 18.6275 10.2897 18.6275 10.6471V11.5906C17.7054 11.821 16.8326 12.1815 16.0219 12.6666L15.357 12.0017C15.1043 11.749 14.6946 11.749 14.4419 12.0017L12.0017 14.4419C11.749 14.6945 11.749 15.1043 12.0017 15.357L12.6666 16.0219C12.1815 16.8325 11.8211 17.7053 11.5906 18.6275H10.6471C10.2897 18.6275 10 18.9172 10 19.2745V22.7255C10 23.0828 10.2897 23.3725 10.6471 23.3725H11.5906C11.8211 24.2947 12.1815 25.1674 12.6666 25.9781L12.0017 26.643C11.8804 26.7643 11.8122 26.9289 11.8122 27.1005C11.8122 27.2721 11.8804 27.4367 12.0017 27.558L14.4419 29.9982C14.6946 30.2508 15.1043 30.2508 15.357 29.9982L16.0219 29.3333C16.8326 29.8184 17.7053 30.1789 18.6275 30.4093V31.3529C18.6275 31.7103 18.9172 32 19.2745 32H22.7255C23.0828 32 23.3725 31.7103 23.3725 31.3529V30.7059H25.2956C25.5627 31.459 26.2819 32 27.1255 32C28.1959 32 29.0667 31.1292 29.0667 30.0588C29.0667 28.9885 28.1959 28.1176 27.1255 28.1176C26.2819 28.1176 25.5627 28.6586 25.2956 29.4118H23.3725V24.6667H27.3226L28.325 25.502C28.2468 25.7122 28.2039 25.9394 28.2039 26.1765C28.2039 27.2468 29.0747 28.1176 30.1451 28.1176C31.2155 28.1176 32.0863 27.2468 32.0863 26.1765C32.0863 25.1061 31.2155 24.2353 30.1451 24.2353C29.7832 24.2353 29.4443 24.3351 29.154 24.5083L27.9711 23.5225C27.8548 23.4256 27.7082 23.3725 27.5569 23.3725H23.3725V21.6471H28.3152ZM30.1451 20.3529C30.5019 20.3529 30.7922 20.6432 30.7922 21C30.7922 21.3568 30.5019 21.6471 30.1451 21.6471C29.7883 21.6471 29.498 21.3568 29.498 21C29.498 20.6432 29.7883 20.3529 30.1451 20.3529ZM30.1451 15.1765C30.5019 15.1765 30.7922 15.4667 30.7922 15.8235C30.7922 16.1803 30.5019 16.4706 30.1451 16.4706C29.7883 16.4706 29.498 16.1803 29.498 15.8235C29.498 15.4667 29.7883 15.1765 30.1451 15.1765ZM27.1255 11.2941C27.4823 11.2941 27.7725 11.5844 27.7725 11.9412C27.7725 12.298 27.4823 12.5882 27.1255 12.5882C26.7687 12.5882 26.4784 12.298 26.4784 11.9412C26.4784 11.5844 26.7687 11.2941 27.1255 11.2941ZM27.1255 29.4118C27.4823 29.4118 27.7725 29.702 27.7725 30.0588C27.7725 30.4156 27.4823 30.7059 27.1255 30.7059C26.7687 30.7059 26.4784 30.4156 26.4784 30.0588C26.4784 29.702 26.7687 29.4118 27.1255 29.4118ZM30.1451 25.5294C30.5019 25.5294 30.7922 25.8197 30.7922 26.1765C30.7922 26.5333 30.5019 26.8235 30.1451 26.8235C29.7883 26.8235 29.498 26.5333 29.498 26.1765C29.498 25.8197 29.7883 25.5294 30.1451 25.5294ZM22.0784 25.3947C21.722 25.4836 21.3609 25.5294 21 25.5294C18.5025 25.5294 16.4706 23.4975 16.4706 21C16.4706 18.5025 18.5025 16.4706 21 16.4706C21.3609 16.4706 21.722 16.5164 22.0784 16.6053V25.3947ZM19.9216 30.7059V29.8901C19.9216 29.58 19.7016 29.3135 19.3971 29.2547C18.2754 29.0382 17.2313 28.607 16.2939 27.9729C16.037 27.7992 15.6931 27.832 15.4738 28.0513L14.8995 28.6256L13.3744 27.1005L13.9487 26.5262C14.168 26.307 14.2008 25.963 14.0271 25.7061C13.3931 24.7687 12.9618 23.7246 12.7453 22.6029C12.6865 22.2984 12.42 22.0784 12.1099 22.0784H11.2941V19.9216H12.1099C12.42 19.9216 12.6865 19.7016 12.7453 19.3971C12.9618 18.2753 13.3931 17.2312 14.0271 16.2939C14.2008 16.0371 14.1679 15.6931 13.9487 15.4738L13.3743 14.8995L14.8994 13.3744L15.4738 13.9487C15.693 14.168 16.037 14.2009 16.2938 14.0271C17.2313 13.393 18.2754 12.9618 19.3971 12.7453C19.7016 12.6865 19.9216 12.42 19.9216 12.1099V11.2941H22.0784V15.2798C21.7215 15.2112 21.361 15.1765 21 15.1765C17.7889 15.1765 15.1765 17.7889 15.1765 21C15.1765 24.2111 17.7889 26.8235 21 26.8235C21.361 26.8235 21.7215 26.7888 22.0784 26.7202V30.7059H19.9216Z" fill="#2F7D32"/>
</svg>
