<svg width="65" height="87" viewBox="0 0 65 87" fill="none" xmlns="http://www.w3.org/2000/svg">
<path fill-rule="evenodd" clip-rule="evenodd" d="M12.5738 43.3328C12.5738 64.5964 6.48989 78.4177 0.405945 86.6573C19.7159 74.9624 38.7613 63.5332 58.0712 51.8382C66.8003 46.5224 66.8003 40.1433 58.0712 34.8274C38.7613 23.1324 19.7159 11.7033 0.405945 0.00830078C6.48989 8.24793 12.5738 21.8035 12.5738 43.3328Z" fill="#00A0E3"/>
<path d="M29.0089 17.2786C38.6743 23.1058 48.3392 28.9332 58.0714 34.8274C66.8002 40.1432 66.8003 46.5223 58.0714 51.8381C48.4768 57.649 38.9468 63.3931 29.418 69.1379C33.1302 64.0917 36.3321 55.988 36.3321 43.4797C36.332 30.5129 32.8923 22.2791 29.0089 17.2786Z" fill="#FFBF36"/>
</svg>
