<svg width="30" height="30" viewBox="0 0 30 30" fill="none" xmlns="http://www.w3.org/2000/svg">
<path d="M29.9901 15.0005C29.9901 22.5765 24.376 28.8396 17.0829 29.856C16.4009 29.9506 15.7033 30 14.9951 30C14.1776 30 13.3748 29.9348 12.5931 29.8087C5.45332 28.6589 0 22.4661 0 15.0005C0 6.71618 6.71421 0 14.9961 0C23.278 0 29.9922 6.71618 29.9922 15.0005H29.9901Z" fill="white"/>
<path d="M17.082 12.0449V15.3126H21.1231L20.4832 19.7144H17.082V29.8559C16.4001 29.9505 15.7024 29.9999 14.9942 29.9999C14.1767 29.9999 13.3739 29.9348 12.5922 29.8086V19.7144H8.86523V15.3126H12.5922V11.3144C12.5922 8.83397 14.6023 6.82227 17.083 6.82227V6.82437C17.0904 6.82437 17.0967 6.82227 17.1041 6.82227H21.1242V10.6292H18.4973C17.7166 10.6292 17.083 11.2629 17.083 12.0439L17.082 12.0449Z" fill="#130D24"/>
</svg>
