<svg width="268" height="257" viewBox="0 0 268 257" fill="none" xmlns="http://www.w3.org/2000/svg">
<g opacity="0.36">
<path d="M95.7 256.518C95.5008 256.518 95.3134 256.412 95.2233 256.234L87.5667 241.392C84.0136 241.558 80.4249 241.461 76.8883 241.105L68.3802 255.513C68.2593 255.72 68.0031 255.817 67.7635 255.749L52.2037 251.336C51.9665 251.268 51.8076 251.052 51.8242 250.818L52.9959 234.352C49.8674 232.829 46.81 231.032 43.8925 229.006L28.9494 237.434C28.7359 237.553 28.4632 237.517 28.2924 237.346L17.1349 226.128C16.9641 225.956 16.9404 225.695 17.0803 225.499L26.7672 211.786C24.8009 208.905 23.086 205.9 21.6605 202.846L4.30278 203.038C4.06559 203.049 3.83788 202.88 3.77859 202.65L0.0143465 187.639C-0.0425796 187.409 0.0736445 187.172 0.296605 187.068L15.9038 179.799C15.726 176.423 15.8256 173.013 16.2003 169.647L1.03902 161.551C0.823172 161.436 0.718807 161.193 0.789965 160.967L5.4247 146.179C5.49586 145.951 5.72119 145.805 5.97024 145.818L23.29 146.943C24.8934 143.968 26.7815 141.06 28.9091 138.294L20.0357 124.083C19.9076 123.88 19.948 123.621 20.1282 123.459L31.9214 112.858C32.1017 112.696 32.3768 112.673 32.5832 112.806L47.014 122.023C50.0405 120.159 53.1999 118.527 56.4139 117.172L56.2004 100.671C56.198 100.434 56.3665 100.227 56.6084 100.173L72.4006 96.6026C72.6426 96.5462 72.8916 96.6589 73.0007 96.8708L80.6573 111.713C84.2081 111.546 87.7968 111.641 91.3357 112L99.8438 97.5921C99.9647 97.3847 100.221 97.2878 100.46 97.3554L116.02 101.769C116.257 101.836 116.416 102.05 116.4 102.287L115.228 118.752C118.357 120.276 121.416 122.075 124.329 124.099L139.272 115.671C139.486 115.55 139.758 115.588 139.929 115.759L151.087 126.977C151.258 127.149 151.281 127.41 151.141 127.606L141.454 141.319C143.418 144.2 145.136 147.204 146.561 150.259L163.919 150.067C164.161 150.078 164.384 150.225 164.443 150.455L168.21 165.471C168.267 165.701 168.15 165.937 167.927 166.041L152.32 173.31C152.498 176.689 152.398 180.101 152.024 183.462L167.185 191.558C167.401 191.673 167.505 191.917 167.434 192.142L162.799 206.93C162.728 207.158 162.503 207.305 162.254 207.291L144.934 206.166C143.333 209.137 141.445 212.045 139.315 214.817L148.188 229.028C148.316 229.231 148.276 229.491 148.096 229.653L136.303 240.253C136.122 240.416 135.847 240.438 135.641 240.305L121.21 231.089C118.181 232.955 115.022 234.585 111.81 235.937L112.024 252.438C112.026 252.675 111.858 252.882 111.616 252.936L95.8234 256.509C95.783 256.518 95.7403 256.523 95.7 256.523V256.518ZM87.8893 240.366C88.0909 240.366 88.2783 240.474 88.366 240.65L95.9894 255.429L110.954 252.044L110.743 235.612C110.74 235.409 110.866 235.225 111.061 235.144C114.431 233.744 117.749 232.033 120.921 230.056C121.099 229.946 121.331 229.946 121.509 230.059L135.878 239.237L147.052 229.191L138.214 215.04C138.105 214.864 138.117 214.646 138.243 214.481C140.496 211.583 142.479 208.529 144.137 205.407C144.234 205.226 144.434 205.118 144.649 205.13L161.896 206.25L166.286 192.234L151.189 184.172C151.001 184.073 150.897 183.877 150.921 183.676C151.333 180.153 151.438 176.569 151.231 173.024C151.22 172.821 151.336 172.632 151.528 172.541L167.069 165.304L163.499 151.075L146.215 151.266C146.02 151.266 145.807 151.149 145.721 150.964C144.246 147.757 142.443 144.601 140.363 141.588C140.247 141.418 140.247 141.198 140.366 141.029L150.012 127.374L139.438 116.744L124.557 125.136C124.374 125.239 124.142 125.228 123.969 125.109C120.921 122.967 117.707 121.081 114.419 119.501C114.229 119.408 114.113 119.219 114.127 119.016L115.294 102.621L100.551 98.4373L92.0805 112.784C91.9761 112.962 91.7674 113.063 91.5586 113.039C87.849 112.644 84.08 112.543 80.3537 112.739C80.145 112.75 79.941 112.64 79.8461 112.457L72.2227 97.6777L57.2583 101.061L57.4694 117.492C57.4718 117.695 57.3461 117.88 57.1516 117.961C53.7763 119.363 50.458 121.074 47.2915 123.049C47.1136 123.159 46.8811 123.159 46.7032 123.046L32.3341 113.868L21.16 123.914L29.9954 138.067C30.1045 138.243 30.0927 138.461 29.967 138.626C27.7184 141.52 25.7355 144.574 24.0727 147.7C23.9755 147.881 23.7763 147.989 23.5604 147.978L6.31417 146.857L1.92374 160.873L17.021 168.935C17.2084 169.034 17.3128 169.23 17.289 169.431C16.8763 172.958 16.772 176.542 16.9783 180.083C16.9902 180.286 16.874 180.475 16.6818 180.566L1.14101 187.803L4.71075 202.033L21.9949 201.841C22.225 201.836 22.4029 201.958 22.4883 202.143C23.9636 205.35 25.7663 208.506 27.8465 211.52C27.9627 211.689 27.9627 211.909 27.8441 212.079L18.1975 225.733L28.7715 236.363L43.653 227.971C43.838 227.868 44.068 227.879 44.2412 227.998C47.2915 230.142 50.5054 232.029 53.7905 233.606C53.9803 233.699 54.0965 233.888 54.0823 234.091L52.9153 250.486L67.6592 254.67L76.1293 240.323C76.2337 240.145 76.4377 240.044 76.6535 240.068C80.3608 240.463 84.1298 240.564 87.8584 240.37C87.8679 240.37 87.8774 240.37 87.8869 240.37L87.8893 240.366ZM84.1654 216.789C83.7574 216.789 83.3471 216.785 82.9391 216.774C71.6369 216.469 61.134 212.002 53.366 204.19C37.327 188.065 38.0695 162.547 55.0216 147.308C63.2332 139.926 73.9827 136.022 85.2825 136.331C96.5847 136.636 107.088 141.103 114.856 148.915C130.895 165.04 130.152 190.558 113.2 205.797C105.285 212.91 95.0169 216.789 84.1654 216.789ZM84.0563 137.325C73.4775 137.325 63.468 141.105 55.7521 148.041C39.2246 162.897 38.5011 187.772 54.1368 203.493C61.7128 211.109 71.95 215.466 82.9675 215.762C93.9851 216.057 104.462 212.257 112.467 205.062C128.995 190.206 129.718 165.331 114.082 149.609C106.506 141.993 96.2693 137.636 85.2517 137.341C84.8532 137.33 84.4524 137.325 84.0563 137.325Z" fill="#00A0E3"/>
<path d="M210.309 144.779C210.294 144.779 210.283 144.779 210.268 144.779L199.061 143.97C198.814 143.952 198.61 143.774 198.575 143.54L196.834 132.342C194.543 131.758 192.256 130.992 190.026 130.059L181.303 137.781C181.12 137.941 180.845 137.961 180.641 137.828L171.355 131.801C171.148 131.668 171.068 131.418 171.16 131.197L175.548 120.662C173.821 119.028 172.239 117.283 170.833 115.466L159.227 118.002C158.985 118.054 158.736 117.941 158.629 117.729L153.755 108.1C153.648 107.886 153.71 107.631 153.904 107.485L163.25 100.448C162.628 98.2458 162.178 95.9851 161.912 93.7176L150.506 90.393C150.268 90.3231 150.112 90.1067 150.131 89.8723L150.973 79.22C150.992 78.9833 151.179 78.7917 151.426 78.7579L163.207 77.1103C163.819 74.9329 164.626 72.7601 165.605 70.6436L157.474 62.3467C157.306 62.1731 157.284 61.9117 157.424 61.7178L163.76 52.898C163.9 52.7019 164.163 52.6253 164.395 52.7132L175.484 56.8898C177.201 55.2511 179.035 53.7477 180.947 52.4111L178.271 41.3801C178.214 41.1502 178.335 40.9136 178.558 40.8099L188.686 36.1847C188.909 36.0833 189.18 36.1419 189.334 36.3267L196.746 45.2142C199.063 44.6236 201.443 44.1999 203.826 43.9474L207.315 33.1103C207.389 32.8849 207.617 32.7361 207.863 32.7542L219.071 33.5633C219.317 33.5814 219.521 33.7594 219.557 33.9939L221.298 45.1939C223.589 45.7777 225.876 46.544 228.105 47.4772L236.829 39.755C237.012 39.5927 237.287 39.5747 237.491 39.7077L246.777 45.7348C246.983 45.8678 247.064 46.118 246.972 46.3389L242.583 56.874C244.31 58.5082 245.892 60.2527 247.299 62.0694L258.905 59.5337C259.144 59.4819 259.396 59.5946 259.502 59.8064L264.377 69.4354C264.483 69.6496 264.422 69.9043 264.227 70.0508L254.879 77.0877C255.501 79.2921 255.952 81.5528 256.217 83.8181L267.624 87.1427C267.861 87.2126 268.018 87.429 267.999 87.6634L267.157 98.3157C267.138 98.5524 266.95 98.744 266.704 98.7778L254.922 100.425C254.31 102.603 253.504 104.773 252.524 106.892L260.655 115.189C260.824 115.363 260.845 115.624 260.705 115.818L254.37 124.638C254.23 124.834 253.966 124.91 253.734 124.823L242.645 120.646C240.928 122.285 239.092 123.788 237.183 125.122L239.858 136.153C239.915 136.383 239.794 136.62 239.571 136.724L229.443 141.349C229.218 141.45 228.95 141.392 228.795 141.207L221.383 132.319C219.066 132.91 216.687 133.334 214.303 133.586L210.812 144.423C210.743 144.637 210.534 144.782 210.304 144.782L210.309 144.779ZM199.564 142.99L209.924 143.738L213.392 132.968C213.454 132.775 213.634 132.635 213.845 132.615C216.407 132.362 218.962 131.907 221.443 131.255C221.649 131.201 221.869 131.269 222 131.429L229.365 140.262L238.727 135.986L236.068 125.023C236.02 124.825 236.101 124.62 236.274 124.5C238.331 123.087 240.302 121.471 242.135 119.697C242.285 119.553 242.512 119.505 242.712 119.582L253.731 123.734L259.585 115.581L251.504 107.336C251.36 107.187 251.322 106.971 251.407 106.784C252.477 104.516 253.343 102.181 253.978 99.8462C254.033 99.6501 254.204 99.5013 254.417 99.472L266.125 97.8356L266.903 87.9902L255.567 84.6859C255.363 84.6273 255.216 84.456 255.195 84.2554C254.929 81.8233 254.445 79.3935 253.76 77.0336C253.703 76.8375 253.774 76.6279 253.943 76.5017L263.231 69.5076L258.727 60.6066L247.192 63.1266C246.983 63.1716 246.768 63.095 246.642 62.9305C245.152 60.974 243.452 59.0987 241.583 57.3564C241.431 57.2144 241.381 56.998 241.462 56.8086L245.824 46.3389L237.24 40.7693L228.57 48.4441C228.414 48.5839 228.184 48.6177 227.989 48.5343C225.603 47.5155 223.146 46.6905 220.686 46.0842C220.48 46.0324 220.325 45.8701 220.292 45.6695L218.561 34.5393L208.2 33.7932L204.732 44.5628C204.671 44.7566 204.49 44.8964 204.279 44.9166C201.718 45.1691 199.163 45.6266 196.68 46.2758C196.473 46.3299 196.253 46.2623 196.122 46.1022L188.757 37.2689L179.395 41.5447L182.054 52.5081C182.102 52.7064 182.021 52.9115 181.848 53.031C179.789 54.4465 177.818 56.0626 175.987 57.8342C175.838 57.9785 175.61 58.0235 175.411 57.9492L164.391 53.7973L158.537 61.95L166.618 70.195C166.763 70.3438 166.801 70.5602 166.715 70.7473C165.645 73.0125 164.78 75.3476 164.144 77.685C164.089 77.8811 163.919 78.0299 163.705 78.0592L151.997 79.6956L151.219 89.541L162.555 92.8453C162.759 92.9039 162.906 93.0752 162.927 93.2758C163.195 95.7124 163.677 98.1422 164.362 100.498C164.419 100.694 164.348 100.903 164.18 101.03L154.891 108.024L159.395 116.925L170.93 114.405C171.139 114.36 171.355 114.436 171.48 114.601C172.97 116.557 174.671 118.432 176.54 120.175C176.691 120.317 176.741 120.533 176.661 120.723L172.299 131.192L180.883 136.762L189.552 129.087C189.709 128.95 189.939 128.914 190.133 128.997C192.519 130.016 194.977 130.841 197.436 131.447C197.643 131.499 197.797 131.661 197.83 131.862L199.562 142.992L199.564 142.99ZM209.023 116.778C203.15 116.778 197.415 115.106 192.458 111.889C179.035 103.178 175.565 85.7182 184.723 72.9674C189.158 66.7915 195.861 62.6284 203.596 61.2445C211.329 59.8605 219.17 61.4225 225.672 65.642C239.094 74.3536 242.564 91.813 233.409 104.564C228.973 110.74 222.27 114.903 214.535 116.287C212.697 116.616 210.854 116.778 209.023 116.778ZM209.104 61.7629C207.339 61.7629 205.563 61.9207 203.791 62.2362C196.336 63.5706 189.877 67.5827 185.6 73.5354C176.775 85.8264 180.119 102.655 193.058 111.053C199.324 115.121 206.881 116.627 214.336 115.293C221.791 113.958 228.252 109.946 232.527 103.993C241.352 91.7025 238.008 74.8743 225.069 66.476C220.292 63.3745 214.763 61.7629 209.101 61.7629H209.104Z" fill="#00A0E3"/>
<path d="M2.42636 80.2365C2.2959 80.2365 2.16545 80.1914 2.06346 80.1013C1.84761 79.9119 1.83575 79.5919 2.03736 79.3867C34.407 46.384 65.8397 32.5197 86.5086 26.7022C108.935 20.3888 123.926 21.9192 124.075 21.935C124.367 21.9666 124.576 22.2168 124.542 22.494C124.509 22.7712 124.243 22.9696 123.954 22.938C123.807 22.9223 108.985 21.4166 86.7481 27.6872C66.2215 33.4754 34.9976 47.263 2.81535 80.0765C2.71099 80.1824 2.56868 80.2365 2.42636 80.2365Z" fill="#00A0E3"/>
<path d="M10.1846 59.6036C10.0375 59.6036 9.89286 59.5473 9.78612 59.4346C9.59162 59.225 9.6106 58.9072 9.83119 58.7201C45.2416 28.8165 77.4404 17.781 98.2137 13.7892C120.761 9.45482 135.137 12.2543 135.28 12.2836C135.567 12.3422 135.752 12.6104 135.69 12.8831C135.628 13.1559 135.348 13.3294 135.059 13.2731C134.919 13.2438 120.707 10.4871 98.3584 14.7945C77.7274 18.7705 45.7444 29.7474 10.5356 59.4774C10.4337 59.5631 10.3079 59.6059 10.1822 59.6059L10.1846 59.6036Z" fill="#00A0E3"/>
<path d="M151.912 6.38474C151.853 6.38474 151.793 6.38474 151.734 6.38024C150.237 6.29909 149.376 5.21718 148.544 4.16908C147.759 3.18184 147.016 2.25094 145.774 2.05935C144.284 1.8317 143.079 2.85501 141.805 3.93692C140.406 5.12477 138.964 6.35544 136.978 6.07369C135.223 5.82576 134.26 4.52972 133.409 3.3892C132.593 2.29602 131.891 1.34935 130.66 1.31103C129.616 1.27722 128.788 1.91735 127.92 2.59355C126.9 3.38695 125.745 4.28403 124.149 3.97298C123.314 3.8107 122.794 3.40498 122.337 3.0466C121.886 2.69498 121.53 2.41548 120.916 2.38618C119.936 2.33885 118.878 2.95418 117.782 4.21416C117.595 4.42829 117.261 4.45984 117.033 4.28178C116.808 4.10372 116.774 3.7859 116.962 3.56952C118.285 2.05034 119.628 1.30878 120.97 1.3764C121.933 1.42373 122.507 1.87002 123.013 2.26447C123.428 2.58904 123.786 2.86853 124.362 2.98123C125.463 3.19536 126.288 2.55298 127.246 1.80916C128.186 1.07887 129.253 0.249408 130.695 0.298995C132.453 0.355345 133.38 1.59954 134.277 2.80317C135.076 3.87606 135.83 4.8881 137.135 5.07293C138.622 5.28255 139.825 4.26375 141.096 3.18409C142.5 1.99174 143.954 0.758808 145.942 1.06309C147.607 1.31779 148.556 2.51015 149.391 3.56051C150.14 4.50267 150.788 5.31636 151.793 5.37271C153.209 5.45385 154.853 3.98876 156.544 1.14649C156.689 0.903062 157.014 0.817411 157.27 0.954904C157.526 1.0924 157.617 1.40119 157.472 1.64462C155.574 4.834 153.753 6.387 151.912 6.387V6.38474Z" fill="#00A0E3"/>
<path d="M178.393 16.6427C177.192 16.6427 176.025 16.264 175.048 15.545C172.653 13.7802 172.162 10.4938 173.957 8.21958C174.821 7.12414 176.082 6.4209 177.508 6.23833C178.962 6.0535 180.409 6.42541 181.583 7.29094C183.981 9.05581 184.47 12.3421 182.674 14.6164C181.811 15.7118 180.549 16.4151 179.123 16.5976C178.879 16.6292 178.635 16.645 178.393 16.645V16.6427ZM174.809 8.8259C173.359 10.6629 173.76 13.3181 175.701 14.7471C176.647 15.4436 177.812 15.7479 178.981 15.5969C180.122 15.4503 181.132 14.8869 181.822 14.0101C183.272 12.1731 182.871 9.51787 180.931 8.08885C179.984 7.39237 178.817 7.09033 177.65 7.2391C176.509 7.38561 175.499 7.9491 174.809 8.8259Z" fill="#00A0E3"/>
</g>
</svg>
