<svg width="30" height="30" viewBox="0 0 30 30" fill="none" xmlns="http://www.w3.org/2000/svg">
<path d="M15.0219 0H14.9536C6.69065 0 -0.0078125 6.70044 -0.0078125 14.9658V15.0342C-0.0078125 23.2996 6.69065 30 14.9536 30H15.0219C23.2849 30 29.9834 23.2996 29.9834 15.0342V14.9658C29.9834 6.70044 23.2849 0 15.0219 0Z" fill="white"/>
<path d="M19.627 6.10352H10.3469C7.7831 6.10352 5.69739 8.18984 5.69739 10.7544V19.2468C5.69739 21.8114 7.7831 23.8977 10.3469 23.8977H19.627C22.1908 23.8977 24.2765 21.8114 24.2765 19.2468V10.7544C24.2765 8.18984 22.1908 6.10352 19.627 6.10352ZM7.33759 10.7544C7.33759 9.09479 8.68778 7.7442 10.3469 7.7442H19.627C21.2861 7.7442 22.6363 9.09479 22.6363 10.7544V19.2468C22.6363 20.9064 21.2861 22.257 19.627 22.257H10.3469C8.68778 22.257 7.33759 20.9064 7.33759 19.2468V10.7544Z" fill="#130D24"/>
<path d="M14.9871 19.326C17.3712 19.326 19.3119 17.3858 19.3119 14.9999C19.3119 12.6141 17.3722 10.6738 14.9871 10.6738C12.6019 10.6738 10.6622 12.6141 10.6622 14.9999C10.6622 17.3858 12.6019 19.326 14.9871 19.326ZM14.9871 12.3156C16.4676 12.3156 17.6717 13.5201 17.6717 15.001C17.6717 16.4819 16.4676 17.6864 14.9871 17.6864C13.5066 17.6864 12.3024 16.4819 12.3024 15.001C12.3024 13.5201 13.5066 12.3156 14.9871 12.3156Z" fill="#130D24"/>
<path d="M19.7123 11.3722C20.3543 11.3722 20.8775 10.8499 20.8775 10.2066C20.8775 9.56339 20.3553 9.04102 19.7123 9.04102C19.0692 9.04102 18.547 9.56339 18.547 10.2066C18.547 10.8499 19.0692 11.3722 19.7123 11.3722Z" fill="#130D24"/>
</svg>
