<svg width="211" height="50" viewBox="0 0 211 50" fill="none" xmlns="http://www.w3.org/2000/svg">
<path fill-rule="evenodd" clip-rule="evenodd" d="M180.176 25C180.176 37.2699 176.649 45.2454 173.121 50C184.318 43.2515 195.361 36.6564 206.557 29.908C211.618 26.8405 211.618 23.1595 206.557 20.092C195.361 13.3436 184.318 6.74847 173.121 0C176.649 4.7546 180.176 12.5767 180.176 25Z" fill="#00A0E3"/>
<path d="M189.705 9.96465C195.309 13.3275 200.914 16.6901 206.557 20.0916C211.618 23.159 211.618 26.8406 206.557 29.908C200.994 33.2612 195.468 36.5763 189.943 39.8914C192.096 36.9796 193.952 32.3036 193.952 25.0857C193.952 17.602 191.957 12.8501 189.705 9.96465Z" fill="#FFBF36"/>
<path d="M8.48992 39.5308C6.56248 39.5308 4.97157 39.2279 3.71721 38.6219C2.46284 38.016 1.52972 37.2225 0.917829 36.2415C0.305943 35.2316 0 34.1352 0 32.9521C0 30.8747 0.856641 29.23 2.56992 28.0181C4.2832 26.8062 6.73075 26.2003 9.91255 26.2003H15.8784V25.8108C15.8784 24.1373 15.3889 22.8821 14.4099 22.0453C13.4615 21.2086 12.2224 20.7902 10.6927 20.7902C9.34656 20.7902 8.16868 21.1076 7.15907 21.7424C6.18005 22.3483 5.58346 23.2572 5.3693 24.4691H0.504806C0.657778 22.911 1.20848 21.5837 2.1569 20.4872C3.13592 19.3619 4.35969 18.5107 5.82822 17.9337C7.32734 17.3277 8.96413 17.0248 10.7386 17.0248C13.9204 17.0248 16.3833 17.8182 18.1271 19.4052C19.871 20.9633 20.7429 23.0985 20.7429 25.8108V39.0115H16.5209L16.1079 35.3326C15.4654 36.5156 14.5323 37.5111 13.3085 38.319C12.0848 39.1269 10.4785 39.5308 8.48992 39.5308ZM9.45364 35.8087C10.7692 35.8087 11.8706 35.5201 12.7578 34.9431C13.6757 34.3371 14.3793 33.5436 14.8688 32.5626C15.3889 31.5816 15.7102 30.4996 15.8326 29.3165H10.4174C8.48992 29.3165 7.11318 29.6339 6.28713 30.2687C5.49168 30.9035 5.09395 31.697 5.09395 32.6492C5.09395 33.6302 5.47638 34.4093 6.24124 34.9863C7.03669 35.5346 8.10749 35.8087 9.45364 35.8087Z" fill="white"/>
<path d="M149.541 39.5308C147.614 39.5308 146.023 39.2279 144.769 38.6219C143.514 38.016 142.581 37.2225 141.969 36.2415C141.357 35.2316 141.051 34.1352 141.051 32.9521C141.051 30.8747 141.908 29.23 143.621 28.0181C145.335 26.8062 147.782 26.2003 150.964 26.2003H156.93V25.8108C156.93 24.1373 156.44 22.8821 155.461 22.0453C154.513 21.2086 153.274 20.7902 151.744 20.7902C150.398 20.7902 149.22 21.1076 148.211 21.7424C147.232 22.3483 146.635 23.2572 146.421 24.4691H141.556C141.709 22.911 142.26 21.5837 143.208 20.4872C144.187 19.3619 145.411 18.5107 146.88 17.9337C148.379 17.3277 150.016 17.0248 151.79 17.0248C154.972 17.0248 157.435 17.8182 159.179 19.4052C160.922 20.9633 161.794 23.0985 161.794 25.8108V39.0115H157.572L157.159 35.3326C156.517 36.5156 155.584 37.5111 154.36 38.319C153.136 39.1269 151.53 39.5308 149.541 39.5308ZM150.505 35.8087C151.821 35.8087 152.922 35.5201 153.809 34.9431C154.727 34.3371 155.431 33.5436 155.92 32.5626C156.44 31.5816 156.762 30.4996 156.884 29.3165H151.469C149.541 29.3165 148.165 29.6339 147.339 30.2687C146.543 30.9035 146.145 31.697 146.145 32.6492C146.145 33.6302 146.528 34.4093 147.293 34.9863C148.088 35.5346 149.159 35.8087 150.505 35.8087Z" fill="white"/>
<path d="M49.1065 30.8629C48.854 32.6309 48.1594 34.1969 47.0228 35.5608C45.8862 36.8995 44.4339 37.9477 42.6658 38.7054C40.8978 39.4631 38.9277 39.842 36.7555 39.842C34.2802 39.842 32.0954 39.3747 30.2011 38.4402C28.332 37.4804 26.8671 36.1544 25.8062 34.4621C24.7454 32.7698 24.215 30.8123 24.215 28.5897C24.215 26.367 24.7454 24.4095 25.8062 22.7172C26.8671 21.025 28.332 19.7115 30.2011 18.777C32.0954 17.8172 34.2802 17.3373 36.7555 17.3373C38.9277 17.3373 40.8978 17.7162 42.6658 18.4739C44.4339 19.2316 45.8862 20.2925 47.0228 21.6564C48.1594 22.9951 48.854 24.561 49.1065 26.3543H44.1434C43.7898 24.7378 42.9436 23.475 41.605 22.5657C40.2663 21.6564 38.6498 21.2018 36.7555 21.2018C35.24 21.2018 33.914 21.5048 32.7774 22.111C31.6408 22.692 30.7568 23.5381 30.1253 24.6494C29.5191 25.7355 29.216 27.0489 29.216 28.5897C29.216 30.1051 29.5191 31.4185 30.1253 32.5299C30.7568 33.6412 31.6408 34.5 32.7774 35.1062C33.914 35.6871 35.24 35.9776 36.7555 35.9776C38.6751 35.9776 40.3042 35.5103 41.6429 34.5757C42.9815 33.6412 43.815 32.4036 44.1434 30.8629H49.1065Z" fill="white"/>
<path d="M52.8434 10.1389H57.7687V39.3116H52.8434V10.1389ZM66.2932 17.3373C68.3138 17.3373 70.0313 17.7414 71.4457 18.5497C72.8602 19.3579 73.9336 20.5198 74.6661 22.0353C75.4238 23.5255 75.8027 25.3314 75.8027 27.4531V39.3116H70.8774V28.2487C70.8774 26.0007 70.347 24.3085 69.2862 23.1719C68.2506 22.01 66.7225 21.4291 64.7019 21.4291C63.3127 21.4291 62.0877 21.7448 61.0269 22.3762C59.9914 22.9824 59.1831 23.8412 58.6022 24.9525C58.0465 26.0639 57.7687 27.3647 57.7687 28.8549L56.0259 27.9077C56.2532 25.685 56.8341 23.7907 57.7687 22.2247C58.7032 20.6587 59.903 19.459 61.3679 18.6255C62.8329 17.7667 64.4746 17.3373 66.2932 17.3373Z" fill="white"/>
<path d="M80.7404 17.7162L83.203 18.1708L85.6657 17.7162V39.3116H80.7404V17.7162ZM83.203 15.0262C82.2685 15.0262 81.4981 14.7737 80.892 14.2685C80.2858 13.7381 79.9827 13.0561 79.9827 12.2226C79.9827 11.3891 80.2858 10.7198 80.892 10.2146C81.4981 9.68421 82.2685 9.41901 83.203 9.41901C84.1628 9.41901 84.9332 9.68421 85.5141 10.2146C86.1203 10.7198 86.4234 11.3891 86.4234 12.2226C86.4234 13.0561 86.1203 13.7381 85.5141 14.2685C84.9332 14.7737 84.1628 15.0262 83.203 15.0262Z" fill="white"/>
<path d="M102.585 39.842C100.084 39.842 97.8618 39.3747 95.917 38.4402C93.9721 37.4804 92.444 36.1544 91.3327 34.4621C90.2213 32.7698 89.6657 30.7997 89.6657 28.5518C89.6657 26.3291 90.1834 24.3842 91.219 22.7172C92.2798 21.025 93.7322 19.7115 95.576 18.777C97.4451 17.8172 99.5793 17.3373 101.979 17.3373C104.378 17.3373 106.449 17.8804 108.192 18.9664C109.96 20.0273 111.324 21.5301 112.284 23.475C113.244 25.4198 113.724 27.7056 113.724 30.3324H93.5301V26.5817H111.261L108.798 27.9835C108.723 26.569 108.382 25.3567 107.775 24.3463C107.195 23.336 106.399 22.5657 105.389 22.0353C104.404 21.4796 103.229 21.2018 101.865 21.2018C100.425 21.2018 99.1626 21.4922 98.0765 22.0731C97.0157 22.6541 96.1822 23.475 95.576 24.5358C94.9698 25.5714 94.6667 26.809 94.6667 28.2487C94.6667 29.8399 95.0203 31.2165 95.7275 32.3783C96.46 33.5402 97.4829 34.4368 98.7963 35.0683C100.135 35.6745 101.714 35.9776 103.532 35.9776C105.174 35.9776 106.854 35.725 108.571 35.2198C110.289 34.6894 111.804 33.9569 113.118 33.0224V36.5837C111.804 37.594 110.2 38.3897 108.306 38.9706C106.437 39.5515 104.53 39.842 102.585 39.842Z" fill="white"/>
<path d="M128.49 37.1142H126.596L135.386 17.8677H140.652L130.195 39.3116H124.664L114.207 17.8677H119.625L128.49 37.1142Z" fill="white"/>
</svg>
