<svg width="293" height="71" viewBox="0 0 293 71" fill="none" xmlns="http://www.w3.org/2000/svg">
<path fill-rule="evenodd" clip-rule="evenodd" d="M250.967 35.7999C250.967 52.9731 246.054 64.1356 241.14 70.7902C256.735 61.345 272.117 52.1144 287.712 42.6692C294.762 38.3759 294.762 33.2239 287.712 28.9306C272.117 19.4854 256.735 10.2548 241.14 0.80957C246.054 7.46417 250.967 18.4121 250.967 35.7999Z" fill="#00A0E3"/>
<path d="M264.242 14.7578C272.048 19.4639 279.853 24.1705 287.712 28.9307C294.762 33.2239 294.762 38.3757 287.712 42.6689C279.963 47.3625 272.265 52.0024 264.569 56.6426C267.568 52.5673 270.156 46.0227 270.156 35.9189C270.156 25.447 267.378 18.7965 264.242 14.7578Z" fill="#FFBF36"/>
<path d="M11.8256 49.0625C9.14086 49.0625 6.92489 48.6405 5.17769 47.7965C3.43049 46.9525 2.13074 45.8473 1.27844 44.4808C0.426147 43.0741 0 41.5469 0 39.8991C0 37.0054 1.19321 34.7145 3.57964 33.0265C5.96606 31.3385 9.37524 30.4945 13.8072 30.4945H22.117V29.9519C22.117 27.6209 21.4352 25.8726 20.0715 24.707C18.7505 23.5415 17.0246 22.9587 14.8939 22.9587C13.0188 22.9587 11.3781 23.4008 9.97185 24.285C8.60818 25.129 7.77719 26.395 7.47889 28.083H0.703143C0.916217 25.9128 1.68328 24.064 3.00434 22.5367C4.36801 20.9693 6.0726 19.7837 8.11811 18.9799C10.2062 18.1359 12.4861 17.7139 14.9578 17.7139C19.3897 17.7139 22.8202 18.8191 25.2492 21.0296C27.6783 23.1999 28.8928 26.174 28.8928 29.9519V48.3391H23.012L22.4367 43.2148C21.5417 44.8626 20.242 46.2492 18.5374 47.3745C16.8328 48.4999 14.5955 49.0625 11.8256 49.0625ZM13.168 43.878C15.0004 43.878 16.5345 43.4761 17.7703 42.6722C19.0488 41.8282 20.0289 40.723 20.7108 39.3565C21.4352 37.99 21.8827 36.4829 22.0531 34.8351H14.5103C11.8256 34.8351 9.90793 35.2772 8.75733 36.1614C7.64935 37.0456 7.09535 38.1508 7.09535 39.4771C7.09535 40.8436 7.62804 41.9287 8.69341 42.7325C9.80139 43.4961 11.2929 43.878 13.168 43.878Z" fill="black"/>
<path d="M208.296 49.0625C205.611 49.0625 203.395 48.6405 201.648 47.7965C199.901 46.9525 198.601 45.8473 197.749 44.4808C196.896 43.0741 196.47 41.5469 196.47 39.8991C196.47 37.0054 197.664 34.7145 200.05 33.0265C202.436 31.3385 205.846 30.4945 210.278 30.4945H218.587V29.9519C218.587 27.6209 217.906 25.8726 216.542 24.707C215.221 23.5415 213.495 22.9587 211.364 22.9587C209.489 22.9587 207.848 23.4008 206.442 24.285C205.079 25.129 204.248 26.395 203.949 28.083H197.173C197.387 25.9128 198.154 24.064 199.475 22.5367C200.838 20.9693 202.543 19.7837 204.588 18.9799C206.677 18.1359 208.956 17.7139 211.428 17.7139C215.86 17.7139 219.291 18.8191 221.72 21.0296C224.149 23.1999 225.363 26.174 225.363 29.9519V48.3391H219.482L218.907 43.2148C218.012 44.8626 216.712 46.2492 215.008 47.3745C213.303 48.4999 211.066 49.0625 208.296 49.0625ZM209.638 43.878C211.471 43.878 213.005 43.4761 214.241 42.6722C215.519 41.8282 216.499 40.723 217.181 39.3565C217.906 37.99 218.353 36.4829 218.523 34.8351H210.981C208.296 34.8351 206.378 35.2772 205.228 36.1614C204.12 37.0456 203.566 38.1508 203.566 39.4771C203.566 40.8436 204.098 41.9287 205.164 42.7325C206.272 43.4961 207.763 43.878 209.638 43.878Z" fill="black"/>
<path d="M68.4003 36.9892C68.0485 39.4519 67.081 41.6332 65.4978 43.533C63.9147 45.3976 61.8918 46.8576 59.4291 47.9131C56.9663 48.9685 54.2222 49.4962 51.1966 49.4962C47.7488 49.4962 44.7056 48.8454 42.067 47.5436C39.4636 46.2068 37.423 44.3597 35.9454 42.0026C34.4678 39.6454 33.729 36.9188 33.729 33.8229C33.729 30.7269 34.4678 28.0003 35.9454 25.6432C37.423 23.286 39.4636 21.4566 42.067 20.1549C44.7056 18.818 47.7488 18.1495 51.1966 18.1495C54.2222 18.1495 56.9663 18.6772 59.4291 19.7327C61.8918 20.7881 63.9147 22.2657 65.4978 24.1655C67.081 26.0302 68.0485 28.2114 68.4003 30.7093H61.4872C60.9946 28.4577 59.816 26.6986 57.9514 25.4321C56.0868 24.1655 53.8352 23.5323 51.1966 23.5323C49.0857 23.5323 47.2387 23.9545 45.6555 24.7988C44.0723 25.608 42.841 26.7866 41.9614 28.3346C41.1171 29.8474 40.6949 31.6768 40.6949 33.8229C40.6949 35.9338 41.1171 37.7632 41.9614 39.3112C42.841 40.8592 44.0723 42.0553 45.6555 42.8997C47.2387 43.7089 49.0857 44.1135 51.1966 44.1135C53.8704 44.1135 56.1396 43.4626 58.0042 42.1609C59.8688 40.8592 61.0298 39.1353 61.4872 36.9892H68.4003Z" fill="black"/>
<path d="M73.6054 8.12279H80.4658V48.7574H73.6054V8.12279ZM92.3395 18.1495C95.154 18.1495 97.5464 18.7124 99.5166 19.8382C101.487 20.964 102.982 22.5824 104.002 24.6933C105.058 26.769 105.585 29.2845 105.585 32.2397V48.7574H98.725V33.3479C98.725 30.2168 97.9862 27.8596 96.5085 26.2764C95.0661 24.6581 92.9376 23.8489 90.1231 23.8489C88.1881 23.8489 86.4818 24.2887 85.0042 25.1682C83.5618 26.0126 82.4359 27.2087 81.6268 28.7567C80.8528 30.3047 80.4658 32.1166 80.4658 34.1923L78.0383 32.873C78.3549 29.777 79.1641 27.1384 80.4658 24.9571C81.7675 22.7759 83.4386 21.1048 85.4791 19.9438C87.5197 18.7476 89.8065 18.1495 92.3395 18.1495Z" fill="black"/>
<path d="M112.463 18.6772L115.893 19.3105L119.323 18.6772V48.7574H112.463V18.6772ZM115.893 14.9304C114.592 14.9304 113.519 14.5786 112.674 13.875C111.83 13.1362 111.408 12.1863 111.408 11.0253C111.408 9.86427 111.83 8.93196 112.674 8.22834C113.519 7.48952 114.592 7.12012 115.893 7.12012C117.23 7.12012 118.303 7.48952 119.112 8.22834C119.957 8.93196 120.379 9.86427 120.379 11.0253C120.379 12.1863 119.957 13.1362 119.112 13.875C118.303 14.5786 117.23 14.9304 115.893 14.9304Z" fill="black"/>
<path d="M142.89 49.4962C139.407 49.4962 136.311 48.8454 133.602 47.5436C130.893 46.2068 128.765 44.3597 127.217 42.0026C125.669 39.6454 124.895 36.9012 124.895 33.7701C124.895 30.6741 125.616 27.9651 127.059 25.6432C128.536 23.286 130.559 21.4566 133.128 20.1549C135.731 18.818 138.704 18.1495 142.046 18.1495C145.388 18.1495 148.273 18.9059 150.701 20.4187C153.163 21.8963 155.063 23.9896 156.4 26.6986C157.737 29.4076 158.405 32.5915 158.405 36.2504H130.278V31.0259H154.975L151.545 32.9785C151.439 31.0083 150.965 29.3196 150.12 27.9124C149.311 26.5051 148.203 25.4321 146.796 24.6933C145.423 23.9193 143.787 23.5323 141.888 23.5323C139.882 23.5323 138.123 23.9369 136.61 24.746C135.133 25.5552 133.972 26.6986 133.128 28.1762C132.283 29.6187 131.861 31.3426 131.861 33.3479C131.861 35.5644 132.354 37.4817 133.339 39.1001C134.359 40.7184 135.784 41.9674 137.613 42.8469C139.478 43.6913 141.677 44.1135 144.21 44.1135C146.496 44.1135 148.836 43.7616 151.228 43.058C153.621 42.3192 155.732 41.2989 157.561 39.9972V44.9578C155.732 46.3651 153.498 47.4733 150.859 48.2825C148.256 49.0916 145.599 49.4962 142.89 49.4962Z" fill="black"/>
<path d="M178.974 45.6966H176.335L188.578 18.8883H195.914L181.349 48.7574H173.644L159.079 18.8883H166.625L178.974 45.6966Z" fill="black"/>
</svg>
