<svg width="12" height="62" viewBox="0 0 12 62" fill="none" xmlns="http://www.w3.org/2000/svg">
<path d="M6.75 1C6.75 0.585786 6.41421 0.25 6 0.25C5.58579 0.25 5.25 0.585786 5.25 1H6.75ZM5.46967 61.5303C5.76256 61.8232 6.23744 61.8232 6.53033 61.5303L11.3033 56.7574C11.5962 56.4645 11.5962 55.9896 11.3033 55.6967C11.0104 55.4038 10.5355 55.4038 10.2426 55.6967L6 59.9393L1.75736 55.6967C1.46447 55.4038 0.989593 55.4038 0.696699 55.6967C0.403806 55.9896 0.403806 56.4645 0.696699 56.7574L5.46967 61.5303ZM6 1H5.25V61H6H6.75V1H6Z" fill="white"/>
</svg>
