<svg width="31" height="30" viewBox="0 0 31 30" fill="none" xmlns="http://www.w3.org/2000/svg">
<path d="M30.9735 15.0005C30.9735 22.5765 25.3594 28.8396 18.0663 29.856C17.3843 29.9506 16.6866 30 15.9785 30C15.161 30 14.3582 29.9348 13.5765 29.8087C6.43672 28.6589 0.983398 22.4661 0.983398 15.0005C0.983398 6.71618 7.6976 0 15.9795 0C24.2614 0 30.9756 6.71618 30.9756 15.0005H30.9735Z" fill="white"/>
<path d="M7.06359 6.61621L13.9795 15.8654L7.02051 23.3856H8.58716L14.6804 16.8019L19.6031 23.3856H24.9335L17.6287 13.6162L24.1065 6.61621H22.5399L16.9289 12.6797L12.395 6.61621H7.06463H7.06359ZM9.3668 7.77026H11.815L22.6281 22.2316H20.1799L9.3668 7.77026Z" fill="#130D24"/>
</svg>
